<mxfile host="app.diagrams.net" modified="2023-11-09T10:04:22.563Z" agent="5.0 (Macintosh; Intel Mac OS X 10_15_7) AppleWebKit/537.36 (KHTML, like Gecko) Chrome/119.0.0.0 Safari/537.36" etag="6nL7y2fZjJqekh8pFUWA" version="20.5.1" type="github">
  <diagram id="KSl7VUmKI4E_kubJAbK_" name="Page-1">
    <mxGraphModel dx="6218" dy="2701" grid="1" gridSize="10" guides="1" tooltips="1" connect="1" arrows="1" fold="1" page="1" pageScale="1" pageWidth="827" pageHeight="1169" math="0" shadow="0">
      <root>
        <mxCell id="0" />
        <mxCell id="1" parent="0" />
        <mxCell id="g9UJR_FiPySJohdKR4Xd-1" value="" style="shape=image;verticalLabelPosition=bottom;labelBackgroundColor=default;verticalAlign=top;aspect=fixed;imageAspect=0;image=data:image/png,iVBORw0KGgoAAAANSUhEUgAAA98AAAWUCAYAAADYvLUlAAAAAXNSR0IArs4c6QAAAARnQU1BAACxjwv8YQUAAAAJcEhZcwAAHYcAAB2HAY/l8WUAANXSSURBVHhe7P0JtGVlgSf4VtrZVVZ1dbedr6pednV1t69evvfsrO56rsxemaYiRAQQBINMMguIKMgkAoKAyqCiICCTDCIyKiCDMiggk8gsIASDSkSSWZRmIqbZtcx+Q9vVPtd++7+53819d+wdcSNin4g7/H5r/VfEPWefffY5J+Lc/T/ft/f5BwAAAAAAAAAAAAAAAAAAAAAAAAAAAAAAAAAAAAAAAAAAAAAAAAAAAAAAAAAAAAAAAAAAAAAAAAAAAAAAAAAAAAAAAAAAAAAAAAAAAAAAAAAAAAAAAAAAAAAAAAAAAAAAAAAAAAAAAAAAAAAAAAAAAAAAAAAAAAAAAAAAAAAAAAAAAAAAAAAAAAAAAAAAAAAAAAAAAAAAAFNefvnlt77yyitLRBZLVq9e/fapf/4sYK+++upb6ve3JSIiG5uf/OQn76iq6k1Tby8AMCyFY9WqVcf8+Z//+dX1nyvrPysReSN1GX+5/vPG+v/GSfm/Upe2N0/912Eeyw7zj370o9/WO82ViMjG5Mc//vFP/W4AoFd+QdSFYp+pQvHrdtEQkXWn/v/zUF3eDqvL2+9P/bdinlG+RWSsKN8ArCHTaevikNHtX3XLhIhscG6r/0/tOvXfjHlC+RaRsaJ8AzBt6jjWe3pKg4iMlExPr3PQ1H875jjlW0TGivINwD+oC8E7Mj22WxJEZHKp/8+9Wmefqf+GzFHKt4iMFeUbYBGbOqb7zL5iICKbJvX/wXscEz53Kd8iMlaUb4BFatWqVSsy8tZXBkRk0ybnV6hz0tR/T+YQ5VtExoryDbAI1aX79L4CICKbPbfVO2ZvmfqvyhygfIvIWFG+ARaR7NRn576zsy8icyirV69+edWqVW+b+m/LZqZ8i8hYUb4BFol6B/Kt9Q79yr6dfRGZW8k09Hz7wNR/XzYj5VtExoryDbAIrF69+u3Zme/byReRuZv6/66vJNvMlG8RGSvKN8ACp3iLzO8o4JuX8i0iY0X5BljAFG+RhREFfPNRvkVkrCjfAAtUXbrfpniLLJzUBXyfqf/ebELKt4iMFeUbYAGq39jfUu+ov9y3Ay8i8zOrVq36db3z9kdT/83ZRJRvERkryjfAAlQX73v6dt5FZH6n/r/96rPPPvsvp/6rswko3yIyVpRvgAWm3jk/v2+nXUQWRlatWvXknXfe+U+m/sszYcq3iIwV5RtgAckxoX076yKysJIP2ab+2zNhyreIjBXlG2CBqHcOf7/eIX+9b0ddRBZe6v/zy6b++zNByreIjBXlG2CBqHfGb+zunIvIwk2O/37ttddMP58w5VtExoryDbAAmG4usjhT/9+/bOptgAlRvkVkrCjfAPNcppv7Pm+RxRvTzydL+RaRsaJ8A8xzOfFS3w65iCyOrFq1amVVVW+aektgZMq3iIwV5RtgHqt3ut9W59d9O+QisniyevXqg6beFhiZ8i0iY0X5BpjH6p3u27o74SKy+FKX79edfG0ylG8RGSvKN8A89corryzp2wkXkcWZuoCfPvX2wIiUbxEZK8o3wDy1atWqJ/t2wEVkcSaHoPzsZz/7vam3CEaifIvIWFG+Aeah1atXv71v51tEFnfqAn7M1NsEI1G+RWSsKN8A81C9k+1YbxFZI479Hp/yLSJjRfkGmGeMeovI2mL0e1zKt4iMFeUbYJ6py7fv9RaRwdTl2/d+j0j5FpGxonwDzCN5w85Jlfp2uEVESuqyuGzqbYONpHyLyFhRvgHmkdWrVx/Ut6MtItLJ1VNvG2wk5VtExoryDTCP1OX7oZ6dbBGRGVm1atWvnHhtHMq3iIwV5Rtgnqh3/n6/bydbRKQvq1ev3mfq7YONoHyLyFhRvgHmiVWrVp3Ut4MtItKXunzfU791OPHaRlK+RWSsKN8A80Rdvp/s28EWEelLTs74s5/97Pem3kLYQMq3iIwV5RtgHqjfqN/St3MtIrK2vPTSS7tPvY2wgZRvERkryjfAPLBq1apd+3asRUTWltWrV58/9TbCBlK+RWSsKN8A80C9E311d6daRGRdqcv3q1VVOe57IyjfIjJWlG+AeSA70H071iIi60r9/vGvp95K2ADKt4iMFeUbYI6rd/ze2rdDLSIym9Tl+6CptxM2gPItImNF+QaY4+od5336dqhFRGaT+j3ksqm3EzaA8i0iY0X5Bpjj6h3n8/t2qEVEZpNVq1atdNz3hlO+RWSsKN8Ac1xdvh/q26EWEZlN8n3fr7322j+ZekthPSnfIjJWlG+AOa7ecf5V3w61iMhs88orr/zR1FsK60n5FpGxonwDzGF18X5b3460iMj6pC6Qh029rbCelG8RGSvKN8AcVpfvFX070iIi65PVq1efOfW2wnpSvkVkrCjfAHNYRqv6dqRFRNYzN5522mlOurYBlG8RGSvKN8Actnr16tN7dqJFRNYrOXGjM55vGOVbRMaK8g0wh9U7zVd3d6JFRNY3dfl+VfneMMq3iIwV5RtgDqt3mO/p25GW+Zcf/OAH1VVXXVWdd9551bnnnltdcskl1be//e3eZUXGTr5uTPneMMq3iIwV5RtgDqvL98t9O9Iyv3LRRRdV73nPe6qtt966Wr58ebXddts1yc+HH3549eyzz85Y/rnnnqsefvjh6umnn55x+aZI/W+ueuyxx6pHHnmkqgtH7zIyP1OXyH859dayqG211Va/P/XXWVG+Zb4n7+kPPPBAil/v9RuarO/BBx9s1t93vawZ5RtgDstU0b6daJk/ueyyy6ptttmmKdrJrrvuWu27777VjjvuWG277bZNGb/rrruml88v5/3226+5Lss8/vjjM9Y36Xz961+f3q5TTjmldxmZn6nfT/711FvLorZkyZL/b13AL3znO985qw8jFlr5vueee6qjjjqqOvjgg6v3v//91YEHHtj8/XOf+1z16KOP9t5G5m/yIer+++/f/B667777epfZ0DzxxBPNenfeeefmQ+S+ZWRmlG+AOWzVqlW/6tuJlvmRH/7wh02BLsX7zDPPbHZQ6p356sknn6wuvfTSZsf3e9/73vRt8st5++23b5ZftmxZMwLdXuek8+Uvf7kp3ingH/3oR3uXkfmZV1555Y+m3loWtbp8/7ZOVefXsynhC6185wO2FStWVHvttVd16KGHNvnABz7Q/J/ffffdRy9oczXHHXdc9elPf7opp33XL5RkdPq0006rDjvssObD3L5lNjSZnXXkkUdWJ554YvXCCy/0LiMzo3wDzGF9O9Ayf3LnnXc2BTpJoc5OXneZ/DJOGc/fs5OU6ealsC9durS67bbbmh2cTEXv3jZJic9I1ne+853qu9/9bnNsed9ymU7+zDPPNNevWrWquSwfDmTUPfeZn7PzlGPSy0h9dqpym6eeemp6G2X+5i/+4i+WTb21LGqt8l2y1hK+0Mr3jTfe2HzAlhLevvyKK65o3qeOPvroBV9Ik4zW5kOHxfBYZe5E+QaYw/p2oGX+5Pbbb58u3xlVuv/++3uXKznhhBOand+U7lIMUoRzfPguu+zSHFeX5VKer7766urDH/5ws95yH1k+I1qf/OQn1yjrGfHIulPsr7zyymZb3vve9zYlO39+85vfbI5Lz/2V+846c9877LBDdeqpp85Yn8y/KN9vqP9td8t3SW8JX6jlO+8D7ctTQvP/PYfG9I1iZhbO1772teZ2+bCve307+VDvmmuuqW699dbpy/IhYXtqcj4IzGXd+8qHkHl/yoeC7ctLcpucvDLrz3HMfcskWS7bmm1uH5OcqdK5brfddmtmHmVb77777rVOuX/ppZeaZfJBaH7Osrn/b3zjG2s93jkfjt5www3NBxv5ffDiiy+uscxDDz00/Tjy9+uvv755/Pk57+PZ1nK7bGve+++4447p25fbXXvttc3z3Xcf3//+95t1dj9oyPpzm2xffgc8//zzM65P8nzlMXz1q19t7r+9jvJa5d9G+zYleY2z/tw2f/Y9V/k3kcdY1pvnOY8xz1ee9+7y8z3KN8Ac1rcDLfMn2UErxTjZc889mx2QvmWT973vfU15bheClONyDHZ2SrJcdpJyWTlpWwp1inUZsc6yGb0qI9xJdmRT6nO7jPZkemmWyzryZ3aOyu3LfWebc1m2Kbcp65L5mdWrV+8+9dayqNX/tofKd8mMEr5YyndKWy7fe++91yhwX/ziF5v3irxvZLp63hvy4V+KWXu5lLePf/zjzXryvpH3myOOOKIZZc97ScpqWfaCCy5oru8W+ZTxfNj4kY98ZEbRS0k7/vjjm/eobGPKc/6eDxvbBT7b/qlPfaq5bp999pl+r7v55pub6zMFO++Xea3znpjl8thym245LUmJzGPOoUIXX3zx9AeZuW0+nLzlllvWuE0O4ckHmnks2d7c1wEHHLDGtP48PzkmO+vIdmbdOQY/25LZU3neUsizfdnO/Jzn7fTTT2+e78xWym3Ke3lel2xv+z5yYs9sR8p2uSylOb9zctvyuycfRmRGVFkmpTszBPJc51wlebwnnXTS9POU5zrX5/dNtyh/5Stfae4zt8kHOnn+cl/nn3/+jOc5v8/ymHJfJ598cvM48viSbHdmXrXXO9+jfAPMYX070DK/kp2J7BBlRy87IdkByTGW2Zlql+MkU8xzgrYsn+Wys5ad3uwkZyQgOzpZLjvP2fHLzldGQDIakx2UjMSU2+b+ynTyJCMTZZ35Mzs2ObHbJz7xierYY49tRk6uu+66ZvQ925lkRzEjTCnm2UEu65L5mXpH9vapcimzS1PC6/9vu9dlYcGV7/x/b1+eMpzi86UvfakZ0exenpKXYpb3oXyImPeQ7hT1z3zmM82yX/jCF5rZNjmfxcc+9rHp975SgJOUsGxHvnKxXJakSJdCV9adP1NSyzqyTA6Jybam0KUQl2VTelMkM5qb5bLNGRUuJT8fiua9NsUwpTflL6OsGaUu29BNymzuJyU0M4XyXltGdVOwd9pppxnHU+e5zTbkmPIsl2Kax5nlcp/tEea8/+Y5y3P02c9+tnlPz/bkuvy9fACaIlpG6PMBRy5PSc/958ONXJ7fF9nO7rHsuW0KcCnfuS7bkQ8m8hrlsvyOSGEuo/t5PNmuvA75/ZLbZOQ7vxPKukv5zgcl7fKdZbIdOW9ISn5eg4xuZ125PL9TyjpK+c595fHkdcq25ASA+T13xhlnzHgs8z3KN8Ac1rcDLfMrK1eubHZMsnORnasy0pJ88IMfbHZIurcpX0uWZbPj1r0+OzzZUexenrTvKwW/XN4u37kuoyPZtvZtkxT93D7JTnP3epm/Ub43KL/ed999r19IO/8Zfc7/78xmSYnLB275e0rUOeecM6NEpYilLHVLdnLuuec26ykjuSlrKYmHHHLIGstmtDTLtkeIy8h3X/lOUWzfZ0putqNdskvyPpoSmfez/FxGvduj4X3JCH5OQjab1zbvwymHeY66U6xTJDP6nQ8Csq4U65T0nEm+u+6U9qyn/TxkND+X5YOL7vIp3/mA4kMf+tCMwp5p5HmMeU7KFPWSPBdJ+/Hng4tsUynfmUWQ9ea+hx5/SnC2K78ThpbJ76J8iJGSXZbJ65D7ykyv8pqU5N9T+caP8ni+9a1vNfdTfie1l8868iFx7qd9+XyO8g0wh/XtQMv8S0a4MwqTHYnsMCXZsc/OaHZW2wU8OxkZHckyKcoZkW6vqy85GVp2ZHLbY445pllvkimSZZlSvrPe7PBmlKS9jpKMGpXbZ119y8j8TL3Df9hWW221ZLGntq5p58n01POFNu28lO+8z6SkpQyliHWneScZlcx1l19+eTPSnPJUkg/3UppyTHWWzYh03s8uueSSGSPnSRkpv+mmm6YvW5/ynW+KyDbnvbK9DdmmlNa8r+U9LctmlDvbkeno5bK+7LHHHs0spKFi2U7Kd+4j577oLp8ZRtm2zCLKdfne6zyujP63tzXJNPJcl8de1pP32Wxve7p3SSnf7dHmJOvK9qRUd7cnRTgjxu0p5t3yndvkg4dsSz486JbeJKPdKdb5vZV/B93XNOkr3znxZ/5dnHXWWWtsW5IPdfOY8jzl55Tv/JzR++7y2cb8G20/lvke5RtgDuvbgZb5m4woZTpijqvLjlN28rPTllGnFOgsM9vynZ3Oiy66qBn1yfGE2VnNzlXWl9vlzxTpsny7fGfHLNvSXl+J8r1w44Rrb6j/362tfK9x0rWFesx3DmXJzylVGVFOAcxU33YByvtV3gsyGyfTrcuoalJm6ORY3Sybgpgyl6Jdbl+Swp/rNrR85zjtbEf7/pNsU7Y7Za+czCu3SVnPupOM7Ke0t+8jWd/ynfvvK98pwrku07hzXQp2eZ/NfbS3txwD3R7BT3HNiHp7ZLuklO/u6HP5MKBv5D7T2HPf7ULdLd9JfidklkJ5XjOTIY+lXJ+kdGeGQO4rx4VnO9ozI/rKdynT+V3S3bakHHOfqf+5viyfD026y2c0PP8W+j6YmK9RvgHmsL4daJn/yS/gcmx1CnF2fso08tmU74wYZIcoO5bZaUlpyPJlffk56xwq35kimR2z9jpLlO+FG+X7DfX/j77y3Xum81gsJ1zL1Ob8v29Pq075zrI5ljjH+6YMlqRkptSW0pgyn2X7Tj7WV75zzHcu655wLe+BKYrt8n3KKac0718ZHc39trcjt8/Zwrsjs3nvPPvss5simvspHxKUbEj5TnHsLp8R4ryvliJcTpKWZfPBQntbk4wM58PTcvsU13yQ0Te6m+XznLaPkU7WVr7zvj2b8p3kOcuHJblNPsDIB8HdE5xlinr+HeS6LJPzmJQp7Wsr3zl/SXfbknyAkQ9Myocu6yrf2e72WfLne5RvgDls1apVv+rbiZb5n3vvvbcp19mhzI5hjpfM5d3ynWP7urc96qijmp2VXJ8dvBT37FQl2Qkq5Xljy3dGUPqWkfmZV1555Y+m3loWtbpot8v3YOkuFkv5TkHOiGR7unBO/JWilENYuuW2m5Tu3D4nZuuWqHKf7fKd0d9c1h35zm1TRtuFLseiZ9nu8c2zSd77MrJbRqbL5Rk17yuvfSnlO8Wzu3w+lMi2ff7zn2+uywnM8p6ek6fNZt2bs3y3k5Ot5fXLaz203fkQJNuTE7/l577yXaad54SgfevJtuTfVB5Dfla+AZgzVq9e/WrfTrTMj6RgZ2ex77qMJGTnqZTvjITk8owoZMcp16UcZEeufbvsUJXpntnByc5K+/rjjjtuo8p3drzK7XMMaN8yMj9Tv5/866m3lkVtqnyvs3QXi6V85z0hH/zl/aUUt0xDTrnKSa/aZa4khbyU8pSpvLd0S26Ou843J+S9pz0qnlHsvNdlinh7+ZzdOu9tOTa4XJ4SmsJWjqsuy5aUqdDZlr6ilrNop2y3b5ufc8hO3/q6yWNLMc3zlmPc2x9E5GRyuTxTtPNzCmlOKJbncegM6u373BzlO79nsp3l+iSvU+6rfBVY3/aUE8Zlu/JzX/nO/WZmVv4tdb/Xu3xQ0f66MuUbgDmj3ll+uW8nWuZHsoORHbaMTmcHI9P58r24Oflado5K8c4Ic/1aN7fJydnKjmquz22zA5NRqezUZCczozi5PgU56y33l1Gl3N+6jvleW/nOOsp9Z6cqUxLzAUKOz+tbXuZP6hK5zqK5GNT/P744m9JdLLTynROlpcim0HWvywhzrivHgyc5ljuX5fwSKeyZap4p3Dk+PKWrXdJykrG8B+WDu7zP5bjuvF+V7wZvf9VYPnDMybxyee43y6dMpuinjHbPsJ5R1zLtOfefEdZs54knnjg96pxSnKKdkp73rkxJzwnZUu6ybe31ZZlcnrKf++6W6nbKBwt5LNmGvC/nNjmpW56bnDW8fSx0iniWy/eM5wPNlM489jzOTHVvfz/6kUce2TxnfQWzfOiQ+2pve0p93uNzqED78iQzo3Lf7dclJTZluNxH3s/zmqRol23LuvL7qJy9Pq/dQQcd1Pw7yXOd1z7HX+eDhXJseMp3fpflPtuPP+vLuvLhRs4Cn+3PoQvZ5jwn7UMb8lyVf3Pdx5JtynY75huATaIuZPf07UTL/Ei+azU7bNkJyQ5mdrCyk5Fym+Ty7MxlR6x9u0zXy85TRr6zXHYQs2x2knJ9jpnL9Vln1ped0oxsZJksn9vl7znmrqwzZ+RNKc/1uU12zMp17eQDguwgZbmsv6wrHwj0LS/zI6tWrfp1VVVvmnprYT0stPKdUppR3+4x0ElKUY6FTqFtF6EU9nKiyLyn5f0nJTnvMe3CmjKW46zLe1GKUz4EzH3msva08yQf7OUrucr7Tcp8im4Kab4GrVvGUghTAPMeldKXP3PSsPaIekZnUxDzPpdlsg2ZCl+OUy7JoT4p+7nvpFvO2ykjzSnqeSzlmyvymPJ+3Fecs1y2LY8rz1m2J897TmzW3pZ8SDs0syDTu3ObfDDQ3rZ8cJHLu69Tkg8VUnrb68s5RvIeXi5LeS6/R7Jt+R2TY7rzYW55PXMcfUp1HmOew/yZD0TKWcqTvN6Z6dA3IyGPP69tHn9JPmjO76L2cjlGPo8lHzB315GZXPl31zcKP1+jfAPMYfVO89XdnWiZP8kOW3Z6stOVncTsvCSl3Ga0JKPafbfLDkdZLjtIKe6lpGfHKyNLZecv68/OU3Yk8zU/uTyXZbShrDM7minSZWcrO3/lum5y7F+Wy3qyDfl7Rnr6lpX5kRzConxvmIVWvlNwMpLYLTolua6vTKaUZcQ15SvvUd3r28n1KfKlNKV0572qW76TbEfeB9ujwbld39m/k1yeKdI5JKd7du6SjMJmnTnpWl+pbSfLDU0PL8njyXthOdt5SmceX/fkZH3JbfOc5fHldt3r83iGtjH3ldei77XKc9S3vry3d1+/rL/vPvK7JM9jnoPudSXZ/iwz9BxlO7ofbLST2+XcJUOv1doeY56bhVS8E+UbYA6rd5hP79uRlvmVfNKfkaMU45xkKMc6Zmesb9mS7Dzm2MxM9ctITvfY70xTz3S9fP9u1tuefp4Rh4wEZWerXJbp7JmCmZ3fTCsslw8lO62539x/Rsiyk9e3nMyP1P9eHlK+N8xCK9+bI3kvGyrf8yHd8t23jMhsonwDzGH1Tt9hfTvSIiLrmRtPO+005XsDKN8bn3zgmNk7fVPd50MyepsPD/rOdi6yPlG+AeawVatWrejZiRYRWa+sXr36zKm3FdaT8r3xyUnaDj/88ObEXX3Xz/Vk6nOOV84hOcq3bEyUb4A5rC7fb+vbkRYRWZ9kFs3U2wrrSfkWkbGifAPMcXUB/1XfzrSIyGzzyiuv/NHUWwrrSfkWkbGifAPMcTlRUt/OtIjIbJKvGXvttdf+ydRbCutJ+RaRsaJ8A8xxdfk+v2+HWkRkNqnL90pnOt9wyreIjBXlG2COq8v3Pn071CIis0n9HnLZ1NsJG0D5FpGxonwDzHH1jt9b+3aoRURmk7p8HzT1dsIGUL5FZKwo3wDzQL3z/GrfTrWIyLpSv3/866m3EjaA8i0iY0X5BpgH6h3oq7s71CIi60o+uHO898ZRvkVkrCjfAPPAqlWrdu3bsRYRWVvq8n3+1NsIG0j5FpGxonwDzAP1G/Vb+nasRUTWlpdeemn3qbcRNpDyLSJjRfkGmCdWrVr1ZN/OtYhIX/L93j/72c9+b+othA2kfIvIWFG+AeaJekf6pL4dbBGRvqxevfqe+q3D8d4bSfkWkbGifAPME/XO3+/37WCLiPSlLt/7TL19sBGUbxEZK8o3wDxS70w/1LeTLSLSzqpVq3712muv/ZOptw42gvItImNF+QaYR+ryfVDfjraISCdXT71tsJGUbxEZK8o3wDySN+ycRKlnR1tEZDp1WVw29bbBRlK+RWSsKN8A80y+t7dvZ1tEJFm1atXKqqqcaG0kyreIjBXlG2Ceqcv32/t2uEVEkrp8HzP1dsEIlG8RGSvKN8A8VO9g39bd4RYRWb169etOtDYu5VtExoryDTAPGf0Wkb4Y9R6f8i0iY0X5Bpin6p3sJ/t2vkVkcSYnY/zZz372e1NvEYxE+RaRsaJ8A8xTr7zyypK+HXARWZxZvXr16VNvD4xI+RaRsaJ8A8xj9Q63Y79FxLHeE6R8i8hYUb4B5rFVq1a9LVNN+3bGRWTxpC7fB029LTAy5VtExoryDTDP1TvdvvdbZBFnle/1nijlW0TGivINMM/VO4W/X+98/6pvp1xEFn7q94BlU28HTIDyLSJjRfkGWABWr169T99OuYgs7NT/9y+behtgQpRvERkryjfAAlHviN/Y3TEXkYWbuni/6iRrk6d8i8hYUb4BFohMP693xl/v20kXkYUX0803DeVbRMaK8g2wgJh+LrI4Uv9fP3/qvz0TpnyLyFhRvgEWmOyU9+2si8jCyKpVq5688847TTffRJRvERkryjfAAlQX8Hv6dtpFZH6n/r/96rPPPvsvp/6rswko3yIyVpRvgAWofmN/S72T/nLfzruIzM+sWrXq1/XO2x9N/TdnE1G+RWSsKN8AC1S9o/423/8tsnCyevXqfab+e7MJKd8iMlaUb4AFrN5Zf7sCLjL/U/9fPmjqvzWbmPItImNF+QZY4BRwkfkdxXvzUr5FZKwo3wCLgAIuMj+jeG9+yreIjBXlG2CRqHcg31oX8JV9O/giMreSD8teeeWVJVP/fdmMlG8RGSvKN8AiUr/hv6Xesb+tu6MvInMnq1evfrku32+b+m/LZqZ8i8hYUb4BFqF65/70vp1+EdnsuS0fkk39V2UOUL5FZKwo3wCL1KpVq1bUJfzVnp1/EdnEyTTzOidN/fdkDlG+RWSsKN8Ai1h+AdQF/My+MiAimyb1/8F76nL3+1P/LZljlG8RGSvKNwD/oC4A76gLwEPdUiAik0tmntTZZ+q/IXOU8i0iY0X5BmBazq6cUbi+oiAi46T+P/ZyHV8hNk8o3yIyVpRvANZQF4O31yXh6hyH2i0OIrLBua3+P7Xr1H8z5gnlW0TGivINwKCpY8L3qUvDjXVp+HWnSIjIOlL//3moLm+HOaZ7/lK+RWSsKN8AzFqmpdcl/Ji6VGRUfGW3aIgs5mQ6ef1nPqg6Kf9X7GAtDMq3iIwV5RuAUdQ7qG9N4RBZLMnhGVP//FnAVq5c+dZVq1adWu80ny7Sl6effvqMyy+//Jokf+9bRiR56aWXjqmq6nen3l4AAACYra222uqtW2655W+WLFlSLV++/A+mLgYAAADGonwDAADAhCnfAAAAMGHKNwAAAEyY8g0AAAATpnwDAADAhCnfAAAAMGHKNwAAAEyY8g0AAAATpnwDAADAhCnfAAAAMGHKNwAAAEyY8g0AAAATpnwDAADAhCnfAAAAMGHKNwAAAEyY8g0AAAATpnwDAADAhCnfAAAAMGHKNwAAAEyY8g0AAAATpnwDAADAhCnfAAAAMGHKNwAAAEyY8g0AAAATpnwDAADAhCnfAAAAMGHKNwAAAEyY8g0AAAATpnwDAADAhCnfAAAAMGHKNwAAAEyY8g0AAAATpnwDAADAhCnfAAAAMGHKNwAAAEyY8g0AAAATpnwDAADAhCnfAAAAMGHKNwAAAEyY8g0AAAATpnwDAADAhCnfAAAAMGHKNwAAAEyY8g0AAAATpnwDAADAiJYuXbpzXbKboj3b1MX8uPqmb3pjDQAAAMA61YX6mW7BXkte33PPPf/p1E0BAACA2Vif0W+j3gAAALCB6mI9m9Fvo94AAACwoWYz+m3UGwAAADZSXbDXNvpt1BsAAAA21tpGv416AwAAwEjqot03+m3UGwAAAMbSN/pt1BsAAABGVhfu9ui3UW8AAAAYW3v026g3AAAATEhdvDP6bdQbAABgQ7z66qtvefnll5eIrC0nnHDCJw4++OCLn3/++WV914skP/nJT95RVZWZEQAA0JUd5h/96Ee/rXeaK5G15YUXXui9XKTkxz/+8U9fffXVN0+9vQAAAIXyLSJjRfkGAIAByreIjBXlGwAABijfIjJWlG8AABigfIvIWFG+AQBggPItImNF+QYAgAHKt4iMFeUbAAAGKN8iMlaUbwAAGKB8i8hYUb4BAGCA8i0iY0X5BgCAAcq3iIwV5RsAAAYo3yIyVpRvAAAYoHyLyFhRvgEAYIDyLSJjRfkGAIAByreIjBXlGwAABijfIjJWlG8AABigfIvIWFG+AQBggPItImNF+QYAgAHKt4iMFeUbAAAGKN8iMlaUbwAAGKB8i8hYUb4BAGCA8i0iY0X5BgCAAcq3iIwV5RsAAAYo3yIyVpRvAAAYoHyLyFhRvgEAYIDyLSJjRfkGAIAByreIjBXlGwAABijfIjJWlG8AABigfIvIWFG+AQBggPItImNF+QYAgAHKt4iMFeUbAAAGKN8iMlaUbwAAGKB8i8hYUb4BAGCA8i0iY0X5BgCAAcq3iIwV5RsAAAYo3yIyVpRvAAAYoHyLyFhRvgEAYIDyLSJjRfkGAIAByreIjBXlGwAABijfIjJWlG8AABigfIvIWFG+AQBggPItImNF+QYAgAHKt4iMFeUbAAAGKN8iMlaUbwAAGKB8i8hYUb4BAGCA8i0iY0X5BgCAAcq3iIwV5RsAAAYo3yIyVpRvAAAYoHyLyFhRvgEAYIDyLSJjRfkGAIAByreIjBXlGwAABijf8yvPPfdcdfXVV1fnnXdedcstt1T1a9e73FxLtvMb3/hGdf/99/dev7nzta99rfrmN785b57PuRrlGwAABijfs8+jjz7alLTTTjutuuCCC6rvfve7vctNKs8880x1yCGHVNtss021ww47VPvtt19Txq+99trq1FNPrR555JHe282FPP3009XWW29dnXzyyZu14D744IPNc3X99ddPb8eLL75YLV++vDrssMOql156aY3byOyjfAMAwADle91JITvzzDObgpYCWf5MUoa/973v9d5u7Fx66aVN6b7sssuq559/vvrBD37QFMgjjjii2nnnnasbbrih93ZzISnfed4+8YlPbHD5vueee6o77rgjBa/3+tkkH57suuuu1dFHHz29HS+88ELz/B1zzDGb9YOBhRDlGwAABijfa0+K3ic/+clqu+22qz7+8Y9Xd999d1MkH3/88Wb693vf+95mJHVTlLaUwxTYJ598csblmcp90003NYW8fflcSp6zPId5Ljf0ufrgBz9Y7bTTThv1ODN7IM/Vww8/PH2Z8j1elG8AABigfK89Kdg77rhj9bGPfay3mKVUPvDAA2tcPol89KMfbUZt52NB/OEPf9h8cLAx5Tsj/Lvvvvs6p4av78i48j1elG8AABigfA8nJe4DH/hAUxofeuih3mX6kmOvP/3pTze3zXHZKY2XX355c2xxe7nrrrtuuozmZGQ55nj//fevPvWpT82Yyv6tb32rKf8Z9c3x3kceeWRTFDOCm+uvueaaZlT+qaeemr5NjkfP8dX5cODWW29tpscfeuihzXHruf6zn/1sdeWVVzbbdM4551Tvf//7m2W+/OUvTxfQK664ornsoIMOqs4666xq5cqV0+tfW3KfWf+BBx5YHXzwwdVFF13UTJFfsWJF77Tz22+/vTr22GObx577yjH1ZTuTnFgujz8fguTxH3XUUc3jP/vss6fXlfv80pe+1Dw3ec7z3J9++ukz1pPk5zwveU5KSR8q33luzj///OpDH/pQ9b73va/58MNJ2dYe5RsAAAYo38NJAU7x/vCHPzzrwpUimZK8/fbbN0XzjDPOaMpg1pNy154ynYJeTkKW2xx//PHNMttuu20zwpup7WWdKbGZtp3ls74U25xoLdenrKeUtqdS5/jvLJ/rUnoPOOCA5nb33Xdfc31G0HNZHtvee+/dbGum0Gc9ObY8U+mzTSeeeGJTZLOu/H1dz0NKcLa1PN6sJ/eVUp3LulP0U/Bzn/lg4OKLL25K+3ve855mWx577LFmmZwcrawzjz9FONv+uc99rllXcvjhhze3O+mkk6oLL7yw2dY8j3vuuWezTeX+7rrrrua4+XwgULajr3yneJfX4jOf+UxznH0+REkBd1K24SjfAAAwQPkeTkacU1xPOOGEGYVxKM8++2xTmnfZZZcZRTjJKGwKeUaby2Vf/OIXmyKYotk+c3pGyXN5Rl3b91umnXdH0FMOU0q7o8Upjrk8Zbqsp/yZMpzHlhHllM9clpK61157TZfW9uh7RpSzrnV9VVhGyPM4v/rVr07fV0a9y4cHeR7K5Vl/ine79CaZxp/LTznllBmXp2D3TTvPMhnJzv20L08Jz7a0z2yek7bl8aVMl8v6ynceZ7Y362hvQ44ZL3+XNaN8AwDAAOV7OJlinAKWKd3tAjaUjDan7F1yySVrLF+mXafElusybTqjuXfeeeeMZVOCU3S7U7Rzhu4U++70777yffPNN69RdtvZd999m4JdinfJcccd15TTnFiufflVV101XWTLdO1u8qFAPhxIQe7eZ0bxs952of7CF77QXPbEE0/MWDbJBw2ZZp6vUiuXlfI92+nv+QAk68/XwpX7nG35zgcAeW2Gnj/pj/INAAADlO/hZDR1ttOtk4xUp9j1ff93CmtGuDOiXaaeZ5R42bJl09OrS1K+s55MQ2/f70c+8pGmfLcLadJXvnMMecpjRsDby5akeOcY8+7jyih/d11Jnousb23lOx8wZMS67/nKCdfy4UP7hGv5UCPLp4RnFsC5557b/Hneeec1U+SXLl064zj2bG/Kd/fxl6RE5wOTTGVP8uFGnsf2FPPZlu/8me3LBw6Zbn7jjTeu8UGFrBnlGwAABijfw/nOd77TlO/utOihpOylTJbjqrvJaHOuTxHNzynfKbrdKeopsWOV76Hv/s708pxMrfu4cp9ZV/cEczm529rWl+REc7lt32hxPlDIc9ku3znJWh5nvkIsx55ne0pyUrUcH94e5V5b+c6HAzkOPGU5x6hnWn15vnMitnKfsy3f5fIch77PPvs068lJ6bqzFGRmlG8AABigfA8nJTllN2mftGsoZeQ7pb17XUpdpmTn5GblmO2FVr6HtjtJiU75bk+lz3JZfrbTyEv57i6fmQMZVc/jyQcA5fIct53SvCEj3+3k+jyf5d9Cd6aC/H2UbwAAGKB8rz0Zxc1U8XJm7e71OflXOSt5pmRn2Uyd7i6bk4ul9LVHhRda+c6HCinHOUt696RoGTHO7dtnO8/zlNKcE9u1lx1KRsd32223NaZ/57FmPe0TqyU5bjvP48aW75J8pVvuJ6Psa1tuMUf5BgCAAcr32pOTgWW0OqUrXxuWopximeO2UxozGltGc3O28xxLnZJ5xx13zFhHvis6pe/BBx+cvnwulu+c/XxDy3dSzuCe47ZLAc9tU5pz+3yHd7nPbG+e13y/d3vbk4xa52vB2pfl+chIdrk8z3f+zHOd9eSr28q685xn6nruM1PHy+WzLd+33XZbs93l5yRfg5bb3nvvvdOXycwo3wAAMED5XncygprjklPkchKwfJ90ji1OSc2JwdrHAed47z322KO5LqPASf6ectgtrimLWWe36D755JNNyczZzdvlL9uQy7vle+h7vjMCfd1116UQzVg+yXUpve31JznLeLa1/TVjybrWV5Lp+fmgIY8rHxTk8ZcCnFLe/UAhHxLk8mx/jtVO+c/zl9ukwLeXTSFO+c3zmWWyrbk+5Tlnac9tso6U6LxG+bAiy7ZnIqS45yzq3e/5zv3ng5TygUFO2Jb15UOKbHOO+8668gFMe5tkZpRvAAAYoHzPLimcOXN4yldOGpbinOnH3e/cTjJynZN8ZUQ8Z/4+55xzZhyLXJKR85zhu/vd0SmD+XqsFNP25ddee21TGrv3me1IwSwncku+//3vN+W1W+xLvvzlL1dXX331GkUy68rtyqhySYr92tbXTrY/3y1+0kknNdPMy0h1vvu77+zrGfXO9ue5ytnWM5Kfs5b3Pbd5zvLc5yvLMjJdPgjI48jXoWUded5zdvJcluPw28fg54ONXNY+I32Wy+tVblMuT9nPfWWbcn+57+7zJTOjfAMAwADlW0TGivINAAADlG8RGSvKNwAADFC+RWSsKN8AADBA+RaRsaJ8AwDAAOVbRMaK8g0AAAOUbxEZK8o3AAAMUL5FZKwo3wAAMED5FpGxonwDAMAA5VtExoryDQAAA5RvERkryjcAAAxQvkVkrCjfAAAwQPkWkbGifAMAwADlW0TGivINAAADlG8RGSvKNwAADFC+RWSsKN8AADBA+RaRsaJ8AwDAAOVbRMaK8g0AAAOUbxEZK8o3AAAMUL5FZKwo3wAAMED5FpGxonwDAMAA5VtExoryDQAAA5RvERkryjcAAAxQvkVkrCjfAAAwQPkWkbGifAMAwADlW0TGivINAAADlG8RGSvKNwAADFC+RWSsKN8AADBA+RaRsaJ8AwDAAOVbRMaK8g0AAAOUbxEZK8o3AAAMUL5FZKwo3wAAMED5FpGxonwDAMAA5VtExoryDQAAA5RvERkryjcAAAxQvkVkrCjfAAAwQPkWkbGifAMAwADlW0TGivINAAADlG8RGSvKNwAADFC+RWSsKN8AADBA+RaRsaJ8AwDAAOVbRMaK8g0AAAOUbxEZK8o3AAAMUL5FZKwo3wAAMED5FpGxonwDAMAA5VtExoryDQAAA5RvERkryjcAAAxQvkVkrCjfAAAwQPkWkbGifAMAwADlW0TGivINAAADlG8RGSvKNwAADKiL99vrHeYH6zwkIrIxefnll2+s31P+4dTbCwAAALO11VZbvXXLLbf8zZIlS6rly5f/wdTFAAAAwFiUbwAAAJgw5RsAAAAmTPkGAACACVO+AQAAYMKUbwAAAJgw5RsAAAAmTPkGAACACVO+AQAAYMKUbwAAAJgw5RsAAAAmTPkGAACACVO+AQAAYMKUbwAAAJgw5RsAAAAmTPkGAACACVO+AQAAYMKUbwAAAJgw5RsAAAAmTPkGAACACVO+AQAAYMKUbwAAAJgw5RsAAAAmTPkGAACACVO+AQAAYMKUbwAAAJgw5RsAAAAmTPkGAACACVO+AQAAYMKUbwAAAJgw5RsAAAAmTPkGAACACVO+AQAAYMKUbwAAAJgw5RsAAAAmTPkGAACACVO+AQAAYMKUbwAAAJgw5RsAAAAmTPkGAACACVO+AQAAYMKUbwAAAJgw5RsAAAAmTPkGAACACVO+AQAAYER10X5bXbJPrf88vaQu3ufXl/025bv++cL2dcm73/3ud9Y3fdMbawAAAADWqi7Tb67L9l+laM8yv16xYsW/mro5AAAAMBt1oT66TjPSva7UZf3C+iZGvQEAAGB9rMfot1FvAAAA2FB1sV7n6LdRbwAAANgIsxj9NuoNAAAAG6su2IOj30a9AQAAYARrGf026g0AAABjqYv2GqPfRr0BAABgRD2j30a9AQAAYGx14Z4e/TbqDQAAABPQGv026g0AAACTktHvuoCfX//VqDcAAMD6Wrly5VtXrVp16o9//OPTRYby9NNPn3Hvvfee23edSMlLL710TFVVvzv19gIAABQvv/zykh/96Ee//clPflKJiGxM6gL+01dfffXNU28vAABAoXyLyFhRvgEAYIDyLSJjRfkGAIAByreIjBXlGwAABijfIjJWlG8AABigfIvIWFG+AQBggPItImNF+QYAgAHKt4iMFeUbAAAGKN8iMlaUbwAAGKB8i8hYUb4BAGCA8i0iY0X5BgCAAcq3iIwV5RsAAAYo3yIyVpRvAAAYoHyLyFhRvgEAYIDyLSJjRfkGAIAByreIjBXlGwAABijfIjJWlG8AABigfIvIWFG+AQBggPItImNF+QYAgAHKt4iMFeUbAAAGKN8iMlaUbwAAGKB8i8hYUb4BAGCA8i0iY0X5BgCAAcq3iIwV5RsAAAYo3yIyVpRvAAAYoHyLyFhRvgEAYIDyLSJjRfkGAIAByreIjBXlGwAABijfIjJWlG8AABigfIvIWFG+AQBggPItImNF+QYAgAHKt4iMFeUbAAAGKN8iMlaUbwAAGKB8i8hYUb4BAGCA8i0iY0X5BgCAAcq3iIwV5RsAAAYo3yIyVpRvAAAYoHyLyFhRvgEAYIDyLSJjRfkGAIAByreIjBXlGwAABijfIjJWlG8AABigfIvIWFG+AQBggPItImNF+QYAgAHKt4iMFeUbAAAGKN8iMlaUbwAAGKB8i8hYUb4BAGCA8i0iY0X5BgCAAcq3iIwV5RsAAAYo3yIyVpRvAAAYoHyLyFhRvgEAYIDyLSJjRfkGAIABi7l810WhSd91JQ8++GB12GGHVbfffnvv9ZPKc889V7344ou91y3W/PCHP1zn67UhyTqfeeaZ3utk/aJ8AwDAgMVWvlOyLr744urDH/5wteOOO1Y77LBDddRRR1WXXHJJU+66y996663NMldeeeUa100qTz31VPXe9763OvDAA6uVK1f2LrPYctddd1W77rprdeKJJ1b1v9feZTY0eW3zfF900UWjr3uxRfkGAIABi6l833333dXee+9dbbvtttUHPvCB6jOf+Ux1yimnVHvttVe1YsWK6n3ve1/10EMPzbjNN7/5zWr58uXVtddeO+PyoWT5T3ziE9Wjjz7ae/1s8vTTTzfblG18/vnne5dZbEn5TkHOczt2Qb7qqquqPfbYo/lQRvneuCjfAAAwYLGU7yeeeKIpbynSN91004zrMu34K1/5SrXddttV++yzz4wpyOtbvr/0pS9V22+/ffXd73639/rZJlPOs1191y3WTHIavg85xonyDQAAAxZL+f7sZz/blOurr7669/rk1FNPbYpzRkLLZaV8f+1rX2t+zqh0RtAfe+yx6WWSFOVnn322Ov/886ttttmmma6eEp/luyU6l91zzz1NMsW8fV1J1tUthDkOPLctP3/ve9+r7r333llPTc/62rd//PHHm8eSP9vLdZPbZOT5vvvua7ahe30eX5Z56aWXmp8feeSR6oEHHpguy93tznH0999/f/XCCy9MX5bkOc2HFu1lS3IfOSygr4DnceV5yPOZ5617fZJ15rHmfst2luTnrLt7eUmuy2PPtj355JO9y+R+2x/a5LXJbRbbYQPKNwAADFgM5TsFKMcLZ8r52kZPU+BStI8++ujp6ccp35mm/vWvf705LnznnXduyvXWW29dHXPMMdPlOWUzly9btqxasmRJtXTp0maZnXbaabqwpXQee+yxzYcA73nPe5o/s+5Pf/rTM4poSmCmwJ9wwgkzpkGffPLJ1cEHH1w9/PDD1Uc+8pHmtrm/TFG/4YYbppcbSkb3d99992Z78mFEjmXPNiaZft99blJ4zznnnObY+F122WX6z0svvXTGdqW85/HkA4ocP53nIduWDzGy3Cc/+clmCn22+4gjjpje7v3337+5LOvI/Wfqf5633Eee7/Z9ZBp/nvsLLrhgxuXf+MY3qj333LO5/9wuz3e2ob1MbtO+PsunqJfrb7nllmq33XZr/mzfLo//i1/8YvM85d9F2e68ht0PXz7+8Y9Xhx56aHPYQh5jls+y++67b3XjjTfOWO9CjvINAAADFkP5zghkim67VPclo6MpTSnpZRQ05TtlMlPWU1xTYL/97W83ZTHr/NjHPtasM7f98pe/3NxHStfpp5/elPVrrrlmutSmyKWEpqR+//vfb0Zijz/++KZ0pqim7GW5LJ+SmBLX3t6ybLYjxT9lMSP5KZbZ7qyzLNuXHNOcx5JCmOKbgpuzuGddWW+Kdvv+UppTOHMisoxm58OJHHOd+2qX/RTjFPisM+s5++yzm9uUgptimucqz2FOmHbzzTc3z03WfcABBzQnv8uHDSmp2aYcf53rSjFP8thy2Re+8IXpbcwodu4vH0TkNc42Ztr/5ZdfPr1Mnp8sc9ZZZzXX5zb5e2YmlGXyWLJMiny5LK/FSSed1MyEyPNwxx13NK97Hlsef06G1z5BXwp5SnoeY/6e1yYfAuQDi6x7Xa/NQonyDQAAAxZD+U7BTPk77bTTZpTLvhx00EHNCGspVt/61rea26awdqdnpzSmdKb4lctSzlNwM+24vWzSN2U7pT0FLwW4bFvKd0bqux8WpPimyGXUun15ynzWcdlll6318eXDgRTEfHVae0p77i+PL+W2jOTfeeed06W1u858OJHSXD5USPnOY85zkSJbPkQoSXnN9mWEv72ufECRcpoPJNpFNsfX5/L22cdTxHMf7Q8I8oFFtrH9/HeTAp3HVba1Lyn9KdQ5F0BZ92233dZs86c+9ak1Hn8OLcjzWEb2c1k+YMhln//852csn8eS9VxxxRVrrGchRvkGAIABi6V8p1x1i1FfPvjBDzbTk0sZzMh3ynffseJf/epXm+vaJ2PLlOyUxIxqt5ddWzIN+kMf+tD0tg2V70xDT5HrlvgU/dxnRmXX9viybSmi7SnXJRlRzjrKieLOPPPM5ueMFneXzVniM7pfptNnCnaK99DXgOXybHf3u7SzPSnZ3cKeUeLc9xlnnDG9vr7yndHovK5Z/9Cx8ynwKej5c6iA95XvfMCR5yqj/d3l85zkuoxwl+Xz98xW6L42GWnPulPY+56bhRblGwAABiyG8p1R3JTk9uhyXzIanCnc7WPDuydcayejoyl2n/vc56bXu67yneKWDwE++tGPVocffngzep5ty9Tpso6h8p1p5ymx3ZOK5Vjy3Gd3RLybsm19hTJTtTNyW46Xzsnnsmymkr///e9vplknGaXOcjk2u8wEKOV7qPyXUeHuidRK+b7++utn3K5MY29/WNJXvpMsk+cvr1tmNnRnHORDlDzXeQ3322+/5vjvblHvK985nCAFO2fJby+b5EOEXJep8uXfScp3tqH72mRUPuvum0GwEKN8AwDAgMVQvnMSrBS3FN21FaAU4yx35JFHTi9Xyvd11123xvKlfLdHaNdWvrOOTGnPFO+MLJ933nlNmewe37228p0S2x1BLid7a38I0JeybX1fg5Zp0e3ynenaKcDZxhTzTGkvybI5ProcF1/Kdx5T3/2nfOdDg27pzXHfKd/dk6vldZht+U5yJvYU77xOKeI5zr67TI4zT0FOac4J6tqvz1D5zv31le8U+qHy3X1tykn81jUrYaFE+QYAgAGLoXyXs4enXPaVqZILL7ywWSbHRpdp0KV8pyB2l88xvyl77euGCm5G1VOoc6x09yu2Mu08Z8ou5WyS5Tulse8Y6YyaZx3lujLteuirtdrZ3OW7JNPV8zrnA5Ef/OAHvcvkGP5sS457L+vpK9851juPP89t+/ZJHm+uywcUZXnl+40o3wAAMGAxlO+kTHHOScv6SlA5c3aO926XxJS1lKdMue6WxxS4FMIUw3JZziieQp6p7u1lU2JznHSKaPv+MxU7pa1dBidVvvOhQorncccdN+M7rXN/OUt37rMcs5zjsHNfayu7JXOlfCe5PstlHX3XJ/m6tpxRvYxa95XvHOOfbWufXb0kU9fzbyWj6eU65fuNKN8AADBgsZTvFK3ylVqZfp5juHMitpTrnAwrRSslKV8R1b5dvpIqZS7TxXMseKZbZ5pzztydkp0zdrdLVZZP0UxR/s53vtMUtHzPeO4/081zm4ymp3Rn2YyEZ/1HHXXU9HqybO6vfRx4kqnQ2f5uwcsHBxmJbU9/70umjGe53F9G2jNtPtuY5yXb1T5besp5nqcsm5OV5VjqbHPKZKai5yu9yrLlbOdD5T8nisv6u+U768iU+7wW7duVot1+POUkbO0Sm/vLCH1G68vzmectz2me88xeyGNLyc868wFIptXndc5XxZX15IOGbF/7q8YyUyElPfeZsp3XPMm/lSyb16uU9yTlO4+l+9pkBkSW7yvxCzHKNwAADFgs5TtJoUoJSkHLyGpJRqRTplJEu7dJocsyKeonn3xy8/cUsiRfodX+yq4kpTWX5/oU3Ywel9KZ8pZp0bm/fFd3ylq2Jycxa087zzoyAj808t3+Wq6knHBtaOS5pEyJT9lMsS+PJWU030HevW2KZM4kXp6njIznRGsZNS7Hhme5MvI9dFKxMvLdPeFavpYtl6f0lmn+Sd8J18rx+Oeee+70ZTm2e7fddmsuz5/ZtjyP+TAi12edeU5yH/nQorzueR3bJbmMfOeDl/b253VLqc76y3OQ1y6vb/es5mXku/valLOdt7d7IUf5BgCAAYupfJfkjNQ54VaKdUp1TsjWt1ySEdRS5pKMsmbkun1ZX/J1XhlZTpFsX5715T5T9NpnC+9Ok06h7n6veH7OCHS3xGUENtvTLbfdlPJdjmPOhwF5LN376SbPT5bLtOw8rjyG9vX5sCDrHLr/oe3O65Dt7h4Dn/Xl8vZx23mMffeREp2vHEuB7zuRXJL7z/ZnFkLfa53tyLq7H6SU5LrcPq/n0HT28hjbHyIks31tFkqUbwAAGLAYy/diTSnffd/zLTJGlG8AABigfC+e5BjrHH889B3kIhsb5RsAAAYo34sn1157bXPMeZl2LjJ2lG8AABigfC+e5JjrnCise1yyyFhRvgEAYIDyLSJjRfkGAIAByreIjBXlGwAABijfIjJWlG8AABigfIvIWFG+AQBggPItImNF+QYAgAHKt4iMFeUbAAAGKN8iMlaUbwAAGKB8i8hYUb4BAGCA8i0iY0X5BgCAAcq3iIwV5RsAAAYo3yIyVpRvAAAYoHyLyFhRvgEAYIDyLSJjRfkGAIAByreIjBXlGwAABijfIjJWlG8AABigfIvIWFG+AQBggPItImNF+QYAgAHKt4iMFeUbAAAGKN8iMlaUbwAAGKB8i8hYUb4BAGCA8i0iY0X5BgCAAcq3iIwV5RsAAAYo3yIyVpRvAAAYoHyLyFhRvgEAYIDyLSJjRfkGAIAByreIjBXlGwAABijfIjJWlG8AABigfIvIWFG+AQBggPItImNF+QYAgAHKt4iMFeUbAAAGKN8iMlaUbwAAGKB8i8hYUb4BAGCA8i0iY0X5BgCAAcq3iIwV5RsAAAYo3yIyVpRvAAAYoHyLyFhRvgEAYIDyLSJjRfkGAIAByreIjBXlGwAABijfIjJWlG8AABigfIvIWFG+AQBggPItImNF+QYAgAHKt4iMFeUbAAAGKN8iMlaUbwAAGKB8i8hYUb4BAGCA8i0iY0X5BgCAAcq3iIwV5RsAAAbUO8pvSQEXGcpdd9210wEHHHDV/vvvf83tt9++c98yIkldwN9RVdWbpt5eAAAAmK2tttrqrVtuueVvlixZUi1fvvwPpi4GAAAAxqJ8AwAAwIQp3wAAADBhyjcAAABMmPINAAAAE6Z8AwAAwIQp3wAAADBhyjcAAABMmPINAAAAE6Z8AwAAwIQp3wAAADBhyjcAAABMmPINAAAAE6Z8AwAAwIQp3wAAADBhyjcAAABMmPINAAAAE6Z8AwAAwIQp3wAAADBhyjcAAABMmPINAAAAE6Z8AwAAwIQp3wAAADBhyjcAAABMmPINAAAAE6Z8AwAAwIQp3wAAADBhyjcAAABMmPINAAAAE6Z8AwAAwIQp3wAAADBhyjcAAABMmPINAAAAE6Z8AwAAwIQp3wAAADBhyjcAAABMmPINAAAAE6Z8AwAAwIQp3wAAADBhyjcAAABMmPINAAAAE6Z8AwAAwIQp3wAAADBhyjcAAABMmPINAAAAE6Z8AwAAwIjqov32umQ3RXu22WKLLfaob/qmN9YAAAAArNPSpUtvqUv1b7sluy9bbrnlyrqw/+7UTQEAAIDZWJ/Rb6PeAAAAsIFmM/pt1BsAAAA2wmxGv416AwAAwEZa2+i3UW8AAAAYwdpGv416AwAAwEj6Rr+NegMAAMCI+ka/jXoDAADAyNqj30a9AQAAYALao99GvQEAAGBCMvpt1BsAAAAmKKPfW2yxxa71X416AwAAwJj+9m//9m2/+MUvLnn99ddfq7Pyb/7mb474u7/7u9+buhoYyY9//OMtf/SjH/36Jz/5SSUisjGp308e+/M///P/YurtBQCYq+qC/ft14T60zo/rv1cDuanO7lVVGQmHESjfIjJWlG8AmONef/31vepCfX39529bJXutqZd9vf7zwp///Od/OLUaYAMo3yIyVpRvAJiD2tPKu8V6fVOvw7R02EDKt4iMFeUbAOaIuiDPZlr5xsa0dFgPyreIjBXlGwA2s9c3YFr5xqa+L9PSYRaUbxEZK8o3AGwGY04r39jU22BaOgxQvkVkrCjfALCJ1AV3U0wr39iYlg4tyreIjBXlGwAm7PXNMK18Y1Nvq2npUFO+RWSsKN8AMAFzaVr5xqYu4C/Uf5qWzqKkfIvIWFG+AWAkdUGdD9PKNzampbOoKN8iMlaUbwDYSPNxWvnGxrR0FgvlW0TGivINABtgIU0r39iYls5CpnyLyFhRvgFgluqCuRimlW9sTEtnQVG+RWSsKN8AsA6LcVr5xsa0dBYK5VtExoryDQA9TCsfL/VzaFo685byLSJjRfkGgCl1QTStfPIxLZ15RfkWkbGifAOw6L1uWvkmT/1ct6el/84brwTMPcq3iIwV5RuARcm08rmT+jUwLZ05S/kWkbGifAOwaNQFz7TyuR/T0plTlG8RGSvKNwAL3uumlc+71K/V9LT00047TRFns1G+RWSsKN8ALEimlS+c1K+haelsNsq3iIwV5RuABaMuaKaVL/yYls4mpXyLyFhRvgGY9143rXzRpX6tTUtnk1C+RWSsKN8AzEtlWnkd08oXeUxLZ5KUbxEZK8o3APNGXbBMK5d1xbR0RqV8i8hYUb4BmPNMK5f1jWnpjEX5FpGxonwDMCeZVi5jxbR0NobyLSJjRfkGYM6oC5Jp5TLpmJbOelG+RWSsKN8AbHZ12d65LkSmlcsmS6al//KXv/xCpqUr4qyN8i0iY0X5BmCzyLTyugR90bRymQN5qo5p6fRSvkVkrCjfAGwyv/rVr96SaeWvv/76s53yI7LZU//b/HX9500///nPdzAaTqF8i8hYUb4BmDjTymW+xbR0CuVbRMaK8g3ARJhWLgsopqUvYsq3iIwV5RuA0ZhWLgs5pqXPDXvuued/MvXXTUL5FpGxonwDsNH+9m//1rRyWVQxLX32Upa32GKLj2y77bYXvetd79qvvuh337jm72299db/U50rlixZslX94xrPZ335n9a5qM5fLFu27FdbbbXVX9S5ss6K+uqJPv/Kt4iMFeUbgA1iWrnIdExLX4u6IL95yy23fHmHHXb47dKlS6v657fXF88ozPVl+++0007/sf7z+NNOO21GOX/3u999Sl24/2NdvH9d//2mel1n13+/uV7Xr5cvX17Vf15QF/x/OLX46JRvERkryjcAs2ZauchwTEvvN1W+n68L8+o6/5+6QN/WLcvbbrvtntttt13K90fa5ftd73rXkXXB/o91wb6z/vO/rS/6nTeu+Qf/oC7zv19fflt9u9/U6z2xW9rHonyLyFhRvgFYJ9PKRdYvmZZel/Gzf/rTn/6bxV7EU77r/HlGres/L95mm21+U5fxpfVV089LX/mu//7P6nL987pYZ4r5W5oFO7bYYot/vmzZsp/X1//Nn/3Zn/2LqYtHpXyLyFhRvgHoZVq5yGhZ1NPS62LclO86d9QF+b+vC/V/qMv3w+94xzv+8dQiQ+V7n/ry3qnobXWpvyiFvi7pu9Q/jn4yNuVbRMaK8g3ANNPKRSaXMi39l7/85aKall6X56Z814X7/vx9iy22OG358uW/qf9+QH11U6r7ynddqi/IcnVZ36H+cfD5qtd36NRtj5nE1HPlW0TGivINgGnlIps4mZZeO+dnP/vZ/7jQi3gKd52MfD+Qv9eF+vfqQv3XuWybbbb5L7NMX/muy/rVy5Yt+9/ry/7n+sfB56gu6VtuvfXWv16yZMnnJ3HiNeVbRMaK8g2wSJlWLjJn8tRrr7121EKdlp7CnaJdpynfuexd73rXUe3R6oHyfU1d0v+3+s//qf5xsHzXt3lHyne97OeUbxGZy1G+ARYR08pF5m7KtPS//uu/3mkhjYancNeZUb7z55IlS56pC/PfZCT83e9+9y495fuKupTnWO7t6h/XVr73zbHh9XLHmXYuInM5yjfAImBaucj8SjMpfYFMS0/RrjOjfMeyZcu2X7FiRaaLf7Iu2jvUfl1f3y7fn035ri/bs/5xsFSX5eo/d6t/VL5FZM5G+QZYoEwrF1kwmdfT0lO466xRvqMu3vfXJfx/efe7331Qpo7X10+fNK2+buvly5ennF81NJ28Xv536+t/XBfvX9Xr+K+nLh6V8i0iY0X5BlhAMq28Lt2H1oXbtHKRBZb5Oi09hbtOb/muS/OfpXTXfz5Wl+j/Y+nSpceW8r3HHnv843r5Z+ty/v/bYostVtQXrfGY68J9+ooVKzLl/MxJHO8dyreIjBXlG2ABqHfKd/3lL395ff2naeUiiyDzaVr6VPn+y7ogP9Qt31EX6OvzlWJ1qrqEzzhuu77unXX5/pu6lP+2vv059c/L63Usqcv4rvWfN2e6eX3dfXWB/z9N3WR0yreIjBXlG2CeKtPK65hWLrK400xLX7Vq1T+benuYU1asWPGP6qK8ui7Wzfd8T108bZtttvmXdbF+pv7zt/Uy+9UXzThu+53vfOfb6+u/nQJel+wqqZet6p//tv77p/fcc89/OrXoRCjfIjJWlG+AecS0chEZyhyelv47dan+v9WF+b+r/967XXUpf0tdsv8ff/zHf/yfTl20hnqZt9br2KJe17bLli37k3e84x2b5Bh45VtExoryDTAPmFYuIuuTMi29zrw/W/rmpnyLyFhRvgHmqEwrr2NauYhsbJ6qS/icnZY+1ynf4+Sxxx6rbr311urb3/529eKLL/YuI7LQo3wDzCGZVv6LX/zisHpn2bRykQnnBz/4QVMI6mI64/L8nJ2kFIR/9+/+3Yzr5nPKtPT68c2rs6WPqe+Y83VZzOX78ccfrx544IGNLstf/epXqx122KEcq1/dfPPNVf2c9i4rspCjfAPMAZlWXu8U39jeUV4oeemll5oduJInnniiuaxv2bmU+jWprr766urCCy+sfvrTn/Yus6H53ve+V5133nnVU0891Xu9bJp8+MMfrvbff//q5z//efNzXvNrrrmm2nfffZuisO222zYn9/rc5z5X/cVf/MUat5/PqQv46/XjXXTT0uvit2XtqfrPveofZ5zYbchiLt+nnXZatf3221ePPPJI7/WzSd738//poIMOqr773e9Wd999d/N7oH5ee5eXuZO8Tk8++aTXasQo3wCbSZlWnp3gvp3jhZKPfvSjTYFpZ9myZc1OXX6h991mLuS1116rdtxxx2q77barnn/++d5lNjRnnXVWtfvuu1df+cpX1hh1lTfys5/9rHr44Yerv/zLv+y9fowcdthh1QEHHDBdvl9++eXmsvPPP7+65557mpx55plN+TjiiCOabequY4Fk0UxLT/lesmTJr+vka81emE0JX8zl+xOf+ETzfv3QQw9tcAG7/vrrq/e85z3Vl7/8ZdPN51ne//73V4cffnj13HPP9V4v6x/lG2ATWozTyj/0oQ9Vu+66azPacd999zU599xzm1KbX+z//t//+97bzYXcf//91Xe+851mRLTv+g3NypUrq29961tV/Qu493r5m6Z4p/TedNNNE/uAIjuVBx544HT5zp/50KW7XD4sWbFiRVPGF/KHJfW/8wU/Lb1dvkvWVcIXc/n+5Cc/2UwV//73v7/B5fvrX/9683/5rrvuMtV8nuV973tfdcghhyjfI0b5BtgE6p3aBTutfF354Ac/2Ezj7ZaWT3/6080OWU7A075cJMmU/BTe2267bWKFN6Pc7fI9lEy7zIdFV1111aKZqVA/zgU5Lb2vfJcMlXDle2b5zjTyiy66qDlnQmYFfelLX6pOOOGE6rOf/Wx17733ThfsH/7wh81hO5n9lHV8/OMfr84555zm/1EOPSr3kXXnA9msI8kyuaxb1K+44orqlltuaS7PfX7qU5+qvvGNbzQ/54PSCy64oBlZf/TRR5tDRY4//vjmslIcn3nmmWa7sx2f//zne+9jKHkPuPjii5s/k/z+OuWUU2asI48ph61ktsAxxxzTbEM+bO67j6wjM2yyLaeffnpzXH2ey9xHDksqt8kHftnmPOft2+f6zJzKrILubIK8LrlNHn+ez/JatZdJnn766enlTjrppOa4/Geffba5Lh8Of/GLX6x23nnnZpZWZgDlNbrhhhtm3F8+SM7rcuKJJ1bHHXdc9YUvfGGN5zX/bjLr4Zvf/GbzHOXfRHnt2v8OFkuUb4AJybTyeif2vOzEdndsF1My8r3PPvusUXAyEp5ylV/c9VM0fXmOr7788suro48+uvnE/eSTT252YNq3Ta688srmmOzcNjsxRx11VLPzkJ+z05fRypwsKzsHp556anXooYc2O0zlePMcw5vjrnPcb3Y8Hnzwwd77uOSSS9YoXNmJ+NjHPtY8tuw8dUfH81izLdmmcr/Z2SrXZ+ckOynZiSmXleQYu+zEphhm27Lt2THrLpcdr+uuu67ZtowOZwf3yCOPbJ7Pv/qrv1pj+b7kvrLjlynV2VnM/Z5xxhnNTmV2YLNMXo/seOXnPGd5PXJf2aY85jzW7KhlZyqvV9aVnefuVP1XX321WU/u86//+q+bnb6MPGfHr12ws768Lnn9c4hCnuMcopBtyo5he515zbKjm/vN8tnBG5pJkZ3U7Bzmec368xzlcbSnnQ8lO64p3+XfW98yCzwLZlr62sp3SbeEK98zy3fOVr7TTjs1BTb/f1LOPvCBD1TLly9vLs//55SvfICWD15z+zyv+TPHfuf/Xd4fsq68h5UTseX9K+vJuRaynhtvvHFGicv95P0070FZJlPZ877zwgsvNP/38/skBXGvvfZqRmxz37ks7zF5j87PWUeOPc/l+b2UGTblca0tuX22Ke/b++23X3P7bHMp/ymyeb/PduW9KGU0y5fZO+3HkfvMuSbyfOXx5u+77bZb816c9V577bXTBTcfHmQ9+ZC6vY485lzeHZXOMfV77713c11+N5UPPvJY26U478O57xxaleWOPfbY5u/5nZf7zvOY4l3/P2iSbc3rlN8P5bXLOvLhet4b8/sjRT+PNzPd8m+k3Ff+3GWXXZr3+zwv5fXN77ayrsUU5RtgRGVaeZ3nenZgF2WGyncKW36Z55d9KTSrV69uls8v8+zYXXrppc3U9Ow85BP3dvE5+OCDm52M7Hzl+oxgpqRlmUxvzE5Myt573/vephBmByzL5XYp89mm7DhmRy4lLzsNpXCWZJ3ZkWhve8p4dkRS+lKws9PRnj6facvZCck68wFAdgpzn9nRKNufkZ889uyElfUm2UnLjkl2ej7zmc80hTM7Kdnu9vOUZAcyjyE7x9kJzePIduRxZ2eqvWxfUp7zOLLzdNlllzUfEOR+sqOVdec5SrnOa5JtyuPN5dlJzI5tdoxzH9kZy31m5y2jNnmcWU92crOjUe4vf8/95YOObGd2YLPt5bj6r33ta836UsyzE57bZ1vyXGSnOTuo7RPU5TnMdmWHLs9x7jfryc55in5ZLsnrkOc795vndY899mj+nucvj39d5TujbHmMGdVb1/O6kFP/e5iell4/n2+vS+q9dal6aD6l3uaV9Z+/rbNG6e6mlPCVK1cuqQuE8j1VUvPBaf6v5T0uhbE9Wpr/Z/k/2S5V+UAwy+f9LR+Gpjjm8oxW5/0t74957y3L570p79t5722P+Ob/at5D8t6QbUjpTOnNdflgLPedbcr9pUBme/P/Pfed5D0yo99ZPu/due+8N7RHcoeSEejcd9afD/FSPHPfeTy5Pu9ruT7PQSmduT6/Y/bcc8/p7UxSzvPeVYp7Lsv2lOc0HxSWy/Oemsvb602yzfn995GPfGR6G/Khc97T8v7Wfj7zvpX32WxjeV0yqp33tPahAPmQMY8rP+e5y3rzPp3Xp8xyKOtM8jjymLvryOPN74psTy7LdVlHHkde17x2+TfTfk4WU5RvgBHVO6eLdnr5UIamnaesZacuO1flshS8XNY9C3h2MLLz8Morr0xfljJddsTySz6XleN1s7NRdpQySp0SmcszylIuT2ksy6cEZ8egW1oz8pyiWcpZRoFz22xne7lsV1kmZwXOTk2Oc+wuU/6e67Lzla+5KpdlpzDbluLZHr3NCcfygUTutz3ym+cv25wPFnKisHJ5ti3ryXaUy7rJ487jyocL7W3Mjl52SLODUC7LcenZCc72ZrS/nPm9PN481+X5L8nXCGVHOFMwy/qzjfmAI69vRlXKc59yn53IvI7ts8qX1yTram9jkn8zeY7zGravywcGuY8yAyKXZUc+l7U//Miod56nrCOvcV/5zuuV2Qrlw5bsaJZtXsypn8NmOnr9/2+/rbba6j/2ldYFll8fcsghF7300kv/R3cnejGkr3ynbOX/d8psKdIlGYnNB3SleCUZyc3/5dtvv31GgcyHpbm871jwfCCY9/y8h5SpyfnALPfbt3w+jMvymVHTLtNllD6j0u3ymPfSvK/l91Mpr2tLynfeR/Je3F0+77W573wQ0X0+8l6fbS7T5TNbJ8vm/btbZvNhc96T8kFkeczrU77zPOexdkfak7yO2f7yYUbeO/Oeng9Ausu2kw8PuqPrSUbY86FvZp11H3PeM9vFPsmHp3nceR7Xdn+LIco3wAQYAf/7ZCQyxSpFM590pwxl6ll2BNrlKb+Qs5OXKcvlspKcaTc7IHfcccf0ZRlxzi/4dnkvyY5BrsuIaHtduY/scGSbuveRT/gzYtC+vFu+M6Ka26f4d29fUkpj977b6SvfmQqdkte+rKRM0W+fHT2jSxkVTnltL5udqdx/dvaG7r+MZmfHrr1MnudsQ3aQygcWKd9ZX6YozvZs3/nwIOtvv74p33l9M2rU3a6MPuWMytm5L5dlh3bocWQnNzuZfduTEZZsa3nNMjMijyk7j+3l8vgyOpP0le/cLjuLmcKa13IBn+l8namfqzVOxFa/lv/d0qVLP1UX8NPnU+oyfWWd37TK9VAyNf1LeZz1v0vTzjvlu3zI1T1mN6Uy/zfzwVW5LKPS+b+cD0JL8cq68n8177ndYpfkPrKe3H8pd3mP7iu/SWYG5T7a052TvJelJGYEvFsSU+azDbMp3/mdksec94LuSHmmhKdg57CdzNDKrKAkI9spp7ku7925XT5MzPtK+bm9nkzXz33k98OGlO9Mic/7bj64yH2X7UgZz++sXFeOQc/zm+3IOvI65gPvsu52UprznHdfo3wokseV39cZqW8/5rzv57r8PY8j95cP4PM7q++1XmxRvgEmbLF8pdhQsnOQnbeM3CYpWSnjl19++YzSk5PMZLmMhuQT/IxkJPkln5HSlM/2MbcZIU4x6hazJDtKKVz5s315fvFlByTT77q3y07jusp3kmPwsi25/+zodUdDM226HPtXTsjTvj7pK99lp7U9+luSEZIs3y6u+QAhoxLdx5HnMY89z2Hfc5PkPlLc8yFIe5nsOOaxtUfNU77zupx99tmD60sy3fDOO+9sdhIzwyC3SakutynlOyfb6a4nHzzk30Z7BL18iJEdx+7yee6zQ13+jZTkMWdaY0beymuW5yk7fnld2uso68lz2Fe+c2x4pnDO9vj5BZoF9xVkS9d9zPd06a4Xbz5oUL77y3dfEc2HorMp3/kz//eSvvKbD2mznrznlRHilO+MwnZHjJNSvrslNR9c5r0iv1fa5bvc/2xHvkv5zuh09zHn/Tzvm3nfSZnNtOskv5/yc7a7jHznPaoU0/Z2JinxG1O+8wFD3vvzHtjdjryX5UPJTEcvr2NejxTr/G7JLIB8UNB9bofKdwp+tnXoMef+2iPfeQ/OLC3lW/kG2KR+sQinpafApmznF3GmKKek9ZWdjFBkJy+/tLODlZ2iJL/483Om/bZPipbilF/yfVOBS/lOGWxfnp2A7GjkmOxuocv6s/PQvryvfGfENNMCs0OV7c312cEr1yc50VtKZh53lskOaXY6yvV95TuPJ8v3lb1SXLNM2b6ybd3Hn+doXeU7yU5kdp5SqnMyoZTXch/tbUj5zra2i3Q7mc2QDw5ynxlJykhynpuU6fYshvIYcqxhdz3rW75TjLOzm38b7X8nSXbwygcFea3K6Fbfv7mMxAyd7TzrzL+HvusWcurnbUGe5bxYS/leo3QXyvf45TvryntF3sP7ym9+H2Q9OVykPfI9F8t3inQKdY41z7bl+nba25PR4SybDyi7swby/AyV73ISu7Jsnr/8rswHvWX7M+Kc1yrb2t2OPPby+nWT1zPv4bnvnGul/fymfPdNO89oeZbP48m62/eVtLc1fzfy/fepXwflG2BTW0zf952dm75jvrsppTE7MilNfcu0s7nKd0mWy45dtiFFsH0285JMv85ocnaesuOYUp7L+8p3dlqzU9Z3tu7sXGX59nHLG1O+Mwqcs+BmZyijISm+2UHNSddSttvLlvKdk9d115ep2NkBzPOWEZVyfXYwshPYvs2Glu++Y75TvmdbjDPyPfTvJDuuQyPfGQXKjIvufS/E1P/fFvz3exc95XuwdBf1zrLyPXL5TsqHdu2v1ipJmc77Yd4/y3VztXyXE5rl/bN9H30px6BnVlT3ceQD0DzmdvnO9PSsOyW3/bjyoWc+rM37eNn+bFvfsrNNPrzMOssJ9JI857m8W5rzWuZ5LV/v1r6um2yL8v33Ub4BNrOFPi09v7hT0NZVlLKzkZ28HGs7m8Kzuct3SQp0dvraU+K7yU5VlsmZZPNzX/nOyHK2uW+aekY9UvCzY1nuY2PKd47vy3Odgpufh5ZL1la+s4Od+2qf4CzJsfFZ/8aU7zwPecx95TvHfOd+s9PZvrwv5WuJ2ierS7KN2SFsHx++CLPgppWvS6t8r7N0F8r3ZMp3inUKXP6Ptoto3pfyXpzfG+0zYs/V8p315vdcim9mEbXvP8njKducPzOanMN+2ic7S2HO7fM+2D7becp6tj/Pa9nO/B7J+3/eH3MSzLLu/D7Jspnt037+k5TebEfWm+R3Y7tkJ2XWUvvyXJZtzYy19rJZX37/5CvEynHk5br8Ls99lecp1ynffx/lG2AO+cUCnJY+2/KdlKLULc2ZBp2dv/Zxu5ujfGenpPud3jlOLztBORlcLk/5LaW2JFP5slOVnZL83Fe+s0OVbc6obvskatn5zPF4eaztUfGNKd/ZAcixedlJS/HNjmuWz2PJTlZ72bWV7+xI5b7aH5jktcr0x+wIt48TX9/ynZ3HPK/Zac7yeW7L7XJMeq7L8aDdrxXLWeOzXeXnTF/NaFJGmspJ07KznB3BPK6MjHf/beZ+sk25Tb7bvH3dfE/92GLBTitfl2XLlv1JXbrPqf/d/rf1j7N6/Iu5fOcbIPL/pD06nUKYQpazWneLaN6Xcl6PvLeVy/LhXAp5Oe65XJ4y/7nPfa75/5n3o7z3lUNK8p6X99T28jm+OIW5ryzng4DcR/f7sPN+ndHcfLtBu7RnmZzjI++hsymE+cAhjzlfO9g30ptj1PN7Ls9VZtRk1kx+n+U9Nh/wla84S8rU87xH5vHmsJg83hTp3L498p3tzGuQ5ySPPYfVZDtyWY7tzu/X9vZnOns+JMhzlZOsZTsywyC/29rPQT50yOPPhyt5n866cx/5oKT9+PIa53lNec625qRu5UOM/H7NduexZAQ+95XtyocLeX8tJT6PIculyCvfyjfAnLSQpqXnl3Y+jZ9N+U7pzC/4lLT8As80vuzIZCcjOzHt8pkdluwU9JXv7HDluoyCtItydmiyo5CiXZePGbfJTkx2WtqXZ4ckOw1l2zNSkW1LES7bltKYElg+GMhOYAppdm5y9tvscGSZ9onGMhKeUY5uSc+U++x85T6yU5hkRzY7pimj7WXLtnUff/nu3O5odDfZicx2Zscwjz3JKEa2NdeVx5zXJDuJpQS315HntpzkJyNS+Xu2NYU2250R6nKb7HTk+c0HEd31pNjnPrKDWi7LMhntybrzbyjrzQcw5fXMTmKeqzIqlO3LqE2Wz85tuY8sn+n6ZYc+z2nuK9uRD3CyY979t5mvd8u68xrlQ5H2v6H5mHr7F8208klYzOU77yM5MWP7bNj58CsnreyOZCcpa/nQqj16mpKWdaSgdpdPUhjzXpr/m3k/yvtI7iPlvL1cPtTLh2J95TdfY5Zt6k5hz7dh5L7bX9+VZN153znnnHN619dNPkwYeswlea9IOc17f84lkffUvC9lWnr3NvndlN9DeR/P+1dGj/M85T2yXb6TbF+2M+vN81M+9EjZze+V7vbnA8cU//yOzO/NvDfnQ888hvKc5u/5/ZR15ndUCnr3w44k687Xt+U9PcvmBKjt+8vrlNerPObcVz5QyYfAZV25zyzT97VkizH186F8A8xlmZZe7zh/sc5rZWd6PiUjqjkRTbdwDSUlNtMRswOXHYL8mePe8kurvVym5rW/equdjIzkF312ANuXZ+QzOyvZyekWqhTfnMG1vb7ssHVLbHY2snORwp2RhIy0tK/P37P+7HRlmfyZHatyfZIdn2xfRoPbl5frMhKRUYvsQOUxtr8jvKRv25Ls6GTdfV/BVpISm2KZM863b59j0vOhQsp/+a71jGRnfdmh695XkucxJ0XLc5Gd0+w45gOBrDsjZOU2OcN61pNZCd31ZKc8O9Upve3L87jzemXnOTuf3echjzHT9fNcZTZDds6zo9v3gUxe3/xbynaWk7hlW/qewzymfECS+57nXzG26KaVT0L9f2rRlm/ZdOk727ksvCjfAPNIXQp2/eUvf3l9/edve3a0RWaVFNaMcPeV1BTTjAznQ4budTL3U5ftOOdnP/vZopxWPgnKt2yKKN+LI8o3wDyUael/+7d/e2hdwhf82dJl/GQmQqZhZ9Q3o80Z6c3U60xtzxTvTMVeaMc6L+TUr18zrfyv//qvTSufAOVbNkXywWcOo+n7GjJZOFG+Aea5+T4tXTZ9Mr08068z+p3j6XOsd06+k+Phc8xe96RrMmfz1GuvvWZa+YQp37IpkmPGc3x1OSt53zIy/6N8AywgpqXL+qScvT1fn9N3pnOZezGtfNNTvkVkrCjfAAuQaekiCyemlW9eyreIjBXlG2CBK9PS6x1409JF5leaaeV/93d/93tT/53ZDJRvERkryjfAIlIX8Z3rHfrrX3/9ddPSReZg3phVblr5XKJ8i8hYUb4BFqFMS//FL35xaL2Tb1q6yGaOaeVzm/ItImNF+QZY5ExLF9lsMa18HlC+RWSsKN8ATDMtXWSyyZzyX/ziF2f/9Kc//TdGuecH5VtExoryDcAaTEsXGS9lWvkvf/nLHRTu+Uf5FpGxonwDsFampYtscJ6qc4Rp5fOb8i0iY0X5BmDWTEsXWXsyrfyXv/zlF37+85//oVHuhUH5FpGxonwDsN5MSxf5+5Rp5XXhNq18AVK+RWSsKN8AbBTT0mURx7TyRUD5FpGxonwDMBrT0mWhx7TyxUf5FpGxonwDMDrT0mUhxbTyxU35FpGxonwDMFGmpcs8jmnlKN8iMlqUbwA2mbqAm5YuczqmldOlfIvIWFG+AdjkTEuXuRTTylkb5VtExoryDcBmZVq6bMaYVs46Kd8iMlaUbwDmjNdff32vugyZli4TS6aV139eaFo5s6V8i8hYUb4BmHPqcvT7mZZe58ft4iSyEbmpzu4KN+tL+RaRsaJ8AzCnZVp6XcIvMS1d1jevv/76C/WfppWzUZRvERkryjcA84Zp6bKutKeVn3baaUa52WjKt4iMFeUbgHmnLlempUs3ppUzEcq3iIwV5RuAec209MUb08rZFJRvERkryjcAC4Zp6Qs/ppWzqSnfIjJWlG8AFpy6nJmWvvBiWjmbhfItImNF+QZgQSvT0l9//XXT0udZ6tfMtHI2O+VbRMaK8g3AolGXOdPS53jq18a0cuYU5VtExoryDcCiU5c709LnXkwrZ05SvkVkrCjfACxqpqVvvtTPuWnlzHnKt4iMFeUbAKbUZdC09Amnfm6np5XXT/nvvPHMw9ylfIvIWFG+AaCjLoempY8f08qZl5RvERkryjcArIVp6Rue+jkzrZx5T/kWkbGifAPALNVl0rT0daR+btrTymHeU75FZKwo3wCwnupyaVr6mjGtnAVJ+RaRsaJ8A8BGWMzT0n/+85+bVs6Cp3yLyFhRvgFgJIthWrpp5Sw2yreIjBXlGwBGVpfThTgt3bRyFiXlW0TGivINABM0n6elm1YOyreIjBflGwA2kfkwLd20cphJ+RaRsaJ8A8AmVpfbuTgt3bRy6KF8i8hYUb4BYDPanNPS6/tcWf9pWjmshfItImNF+QaAOaIuwxOfll6v27RyWA/Kt4iMFeUbAOaYuhxPYlq6aeWwAZRvERkryjcAzGEbMy29vo1p5bCRlG8RGSvKNwDME3WZXue09Po608phRMq3iIwV5RsA5pm6XPdNSzetHCbgxRdf/Lf1DvO9dR4SEdnIfOn111//z6beXgCA+WKrrbZ6y957733Rdtttd9Y73vEOU8sBAABgbHX5fuuWW275myVLllTLly//g6mLAQAAgLEo3wAAADBhyjcAAABMmPINAAAAE6Z8AwAAwIQp3wAAADBhyjcAAABMmPINAAAAE6Z8AwAAwIQp3wAAADBhyjcAAABMmPINAAAAE6Z8AwAAwIQp3wAAADBhyjcAAABMmPINAAAAE6Z8AwAAwIStrXz/8R//8X/67ne/+7/+gz/4g380ddEatthii/+qXsc/m/qxuU3985tXrFjxj9rJZXvuued/MrXYtPr2/3zbbbd9V30/f/SHf/iH/3DqYgAAAFg41la+t9lmm/+yvv65pUuXPpqSPXXxtPq6t9fL/EX95xfqH9/0J3/yJ/9FvZ5v18u/Ul/2i3aWLVv2N/Wfe2a53Pad73znf17/fHG9/P+y9dZbV/X1VX27v6q35cT66t/NMgAAALAg1AV4rdPO6+vP2nHHHX9bL/PR+semOBf1bW7Ydtttf1sX5z+pf3zTn/3Zn/2Lern/tb78r+s/v1zn0pJ6mUszup3lMgJe/3xDfX+/rZc9v768XmTL7eu/31Lnr1asWPHPmzsAAACAhWBd5TtFeOnSpa/V+cn73//+N09d3Nyuvs3/tsUWW3yj/rEZqc4U8npd/2tdpq8vl/VJCd9mm21+Uy9/Tf3jjOXq9f6rupybfg4AAMDCsa7yHfUyh2+33Xa/qUvz++ofm9Hv+jZf2nrrrTPq/W/zc0yV77+rc2v942D5rte3IuX7Xe9618fqH2eMpgMAAMCCM5vyvdNOO/2Terl/Xy/3o9NOO+133/nOd/7Levn/vS7jN9VXT5fsMvJdZ3o0vM+f/dmfva0u7f+xXseqHXfc8b+ZuhgAAAAWptmU76iXO6y+/jf1n1vUOSGj3kuXLv1/Tl3dmCrf/6HO/X/6p3/6P9Q//+G73vWuf1Mv/z/muqnFGvVtv7D99ttnHf+uLvHv/7f/9t/+Z1NXAQAAwMIy2/Kd0e96ub+ol3u2zi+7o94xVb7/spy9vKReb1Vffn69SHv536nX8/E6f7dixYqc6fyVep2H1Zev8XVkAAAAMK/NtnxHXY4/tO2222b0+39vH+tdpHzXy/yyvv7xep071z/vmtTL7lb//D9MLTZDfd1/UxfvT9d//iolvL799UbBAQAAWFDWs3z/X+qSnPJ9X501jumeGvnO2c5vrH8cPOa7z5/+6Z++tV73g3UBz9eaOREbAAAAC8f6lO+lS5f+X1O+63J9Z/3jUPle59nOh+REbPV9/Ka+/Q9zYrepiwEAAGB+W5/yXS/7Bynf9fLfqX8cvXznO8Xr+/iP9e0fU74BAABYMCZQvtf5VWP1eg6o72+7+q8zppYvXbr02HyfeH398fWPpp0DAACwMKxP+d56663/7znhWr38g/Xt1ijXf/qnf/p/rq/7f9Ul+m/rP79eL3N9/ecNSX3bG+tyvqJe7E31fZ1Tl+zf1tc/UV93cZ3z678/kMvq6+6tl/uv3lgjAAAALADrU77r4v0v6uWeePe7331R/eMaI9P1ut5cX/+VumivrP/+76byl8myZcv+sr7d++rF3vSOd7zjH9fLfbgu6Y/U1/2H+u+Zqv5S/feT3/nOd/7nb6wNAAAAFoi68M66fE9Cini9Df906kcAAABYeDZ3+QYAAIAFT/kGAACACVO+AQAAYMKUbwAAAJgw5RsAAAAmTPkGAACACVO+AQAAYMKUbwAAAJgw5RsAAAAmTPkGAACACVO+AQAAYMKUbwAAAJgw5RsAAABGVBftt9Ul+9T6z9NL6uJ9fn3Zb1O+658vbF+XvPvd735nfdM3vbEGAAAAYK3qMv3mumz/VYr2LPPrFStW/KupmwMAAACzURfqo+s0I93rSl3WL6xvYtQbAAAA1sd6jH4b9QYAAIANVRfrdY5+G/UGAACAjTCL0W+j3gAAALCx6oI9OPpt1BsAAABGsJbRb6PeAAAAMJa6aK8x+m3UGwAAAEbUM/pt1BsAAADGVhfu6dFvo94AAAAwAa3Rb6PeAAAAMCkZ/a4L+Pn1X416AwAArK8f/ehHb//xj3/8YJ2HRIaycuXKhx999NHH+64TKXn55ZdvrN9T/uHU2wsAAFDUO8tL6p3l3/7kJz+pREQ2JnUB/+mrr7765qm3FwAAoFC+RWSsKN8AADBA+RaRsaJ8AwDAAOVbRMaK8g0AAAOUbxEZK8o3AAAMUL5FZKwo3wAAMED5FpGxonwDAMAA5VtExoryDQAAA5RvERkryjcAAAxQvkVkrCjfAAAwQPkWkbGifAMAwADlW0TGivINAAADlG8RGSvKNwAADFC+RWSsKN8AADBA+RaRsaJ8AwDAAOVbRMaK8g0AAAOUbxEZK8o3AAAMUL5FZKwo3wAAMED5FpGxonwDAMAA5VtExoryDQAAA5RvERkryjcAAAxQvkVkrCjfAAAwQPkWkbGifAMAwADlW0TGivINAAADlG8RGSvKNwAADFC+RWSsKN8AADBA+RaRsaJ8AwDAAOVbRMaK8g0AAAOUbxEZK8o3AAAMUL5FZKwo3wAAMED5FpGxonwDAMAA5VtExoryDQAAA5RvERkryjcAAAxQvkVkrCjfAAAwQPkWkbGifAMAwADlW0TGivINAAADlG8RGSvKNwAADFC+RWSsKN8AADBA+RaRsaJ8AwDAAOVbRMaK8g0AAAOUbxEZK8o3AAAMUL5FZKwo3wAAMED5FpGxonwDAMAA5VtExoryDQAAA5RvERkryjcAAAxQvkVkrCjfAAAwQPkWkbGifAMAwADlW0TGivINAAADlG8RGSvKNwAADFC+RWSsKN8AADBA+R439XPZe7nIYojyDQAAA5TvcfLAAw9Uxx57bLXzzjtXBx54YPXII4/0LieykKN8AwDAgMVevs8///zq4x//ePXcc8/1Xj+b/PCHP6ze+973VitWrKhOP/306qSTTqruu+++3mVFFnKUbwAAGLDYy/dhhx1WLV26tHrqqad6r59Nvva1r1U77rhjdfHFF5t2Pk9y5513Vscdd5wPSUaO8g0AAAMWe/n+6Ec/Wm2//fbV008/3Xv9bJLSvXz58uq73/1u7/Uy93Lttdc2H5jceuutPjAZMco3AAAMUL7XLN/PP/989dhjj03//Oijj1bf+ta3qgcffHD6suSll16qnnjiierMM8+sttlmm+rmm29ubtdX5L///e83RS8jro8//vga19elpbltprDn54ceeqj69re/XT3zzDPNz7m8vU0p+rfffnv15JNPTl+W5H6yrd/73vdmXL62/OAHP2iSv2cGQLaxfV8lOa79lltuqe666661TtPP83fPPfc021eei/xZ7iPJ483z0PdcrVy5srn/PL/d61588cVm3Xmu77///jWuL8lt77777ma59uuWop3n7NJLL6223Xbb6sorr2y2I69x3/3lPvKYc595XN3r8zyU5yrr/s53vtPcZrEWeuUbAAAGKN9rlu+UrRy/nRL6uc99rvn7smXLqq233rr6xCc+0ZTDLJeCm9Kd65YsWdJMX0+hO/7446fLV8rw0Ucf3Syzww47NOtITjvttBll7oUXXqh222236qyzzqpuvPHGZr3ZrhT7rOvCCy9sRmrLid2yjqxzp512agpm1vGZz3ymuY+yrWefffasSuAxxxxTHXrooU1Z3WWXXZr7zc/ltimnWSaPbffdd2+ejxzjft111zUlur2uFPP99tuvuf8sl23O48lx9R/4wAem1/nss882j/djH/vYGtt49dVXN9uQdbUvT5nff//9m+uyHXmOss7ujIM8R+9///ub5yLLZbvzOud+Ury32267Ga9Z/p4/c7uyjry2H/7wh5sZDVlH/txnn32afxvt7c225nGmnOc+8vc89rzuZZnFFOUbAAAGKN9rlu+U2RS2XXfdtdp3332b8pgimAKZQpeTtKWApTznuhTIFLhzzjmnmc6c0c+sJyO9KaIpiV/5yleqhx9+uFlPindKWk7MVopcKd977LFHc12K8zXXXNMUzlx/wQUXNNuUcpxyf8cddzRFcM8992wKeIpiblu29fDDD2+WzzLlcQ0lz0EeV56HE088sSnVN9xwQ1OsU5JTZN/znvc068pIfI6Tzm1SMtvHTKfYZhuynpTSjDjnucrPSbt8Zz15nEccccSMMpt89atfbbY9I//lstxP1pFj9O+9997m9t/85jebDwH22muvZjuzXJ7Hvffeu3leslwuv+2226pzzz23eb0ycv6Nb3yjOvXUU5vX5bOf/WzzmuXxlg9D8jiyjqw3z39mHaRcH3LIIU0Jbxfrq666qllPCnr+rWQk/YorrtiocwjM5yjfAAAwQPkeHvlOWSzTwJMUtxTygw46aEZhvOyyy5oClnJdLksyap11pxC3L08yGp7yWqZOpzSmuKZ0Xn755WsU0i996UtNQc4HAO3rUlRzeUZlMwW+XJ6ymsdw8sknr7GubvLhQZbNqH7f/eYxpOi2Ly/lOWW93CYFN9tSintZNs9nLj/44IOnl83zmlHxj3zkI2vcZwpsns92+U5Jz/2VafglWXdGslOCs55MAc9zmBkE3fW2kw9YUqQzu6F7XWY7ZJ3dk7Hl9c1tcn1Zdz4gyfOT5789rX6xRvkGAIABynf/yHfK1/XXXz9j2SQFMqOqKcvlshTUlMWMtJbLUj7f9773NSOzKe3l8pKMLud+c9sUuawvo8sZXe0rjRlBzn10j+XOceQptuedd96M22VqfNaXkt+3vnZSgLMt3WKbZPp5RuSzvhwTXZLr8lxkdLisPz+nUPetJ6PnmTJell2f8p31pVDn7ORZtr0dGaXOdZ/85Ceb67Kd+RAjI9Ht8t5Nnv8U6ZT37v1ntkJeu7xu7fvKcnnt8zjLa5rSn38rGU3vrmcxRvkGAIABynd/+U4x6yvfH/zgB5tiV477TvrKd6Ywp7S2j51uJydFS2nOFPRcnzKX6eN9x0AnpXx3T/pWyvcXv/jFGbfL/WeKeh5f3/raOfLII5ttbX+gkOQDhBTNPBeZUp3R3ZL8nJH7FNWsP8vmsu6sgJLMIjjggAOmr1uf8p0R57xGeX5yf+3tSPnP9p1yyinT68k087xG2b5sf4p29z6GyneetzyOjLJ3H3OSdeYDkpTxLJ/y3Z0iv5ijfAMAwADle7h8f/3rX5+xbJIyl2JXjg9ONqZ85yRpuT7FN+UyJzbrW76U7+4ZvofKdz4c2HnnnWdVvo866qhmOn37A4UkhTqFOY8306tzbHQ7Ge3NsdBl2ZTT2ZbvjGZnu/tG5stx1KXQ5hjr/JwPCfKd6inO7e1IgX7kkUdmrCOvZ46zT4HOa3nCCSfMeM2GyncZOU/JzzLd+7rppptmvAalfOfY8DwH5fLFGuUbAAAGKN+TKd8pdCl+Q9POy1myU+7y81ws30k+PMj09XWtI8lzk8fQPk6+5MADD5xRvvP8Zb0p1N11d8t3Xpv2tPP2sutKlj/jjDOa57o9NTxFOq9xPgRpl+b8Pa9b0ve6daN8z4zyDQAAA5TvyZTvJFPKczxwRkvblyc5a3fut5yka66W79xvtjMjzusqlym52Zbu403RzfPwoQ99aHpbSsnNusuZypN8rVmODc/Z48tZ47NsPgTI4++OcJeUbSvTwdvJV5Hl/nNyunL/+dAj953XuPv8lNetW8z7onzPTP0cKN8AANBnsZfvFM+Up/ZXQ2WENOWrjEq3k+nTKart8n3RRRc16+h+3/Sjjz7aTGHOui699NKmKKfYpxCXy0rxS/kemoadlPLdPQN31pfS3v1O7xTpHFM9mxOu5UziGYXuK9/5UCJlOPeds7qn/OcY7BTsnB095bWUzhTjjDDnflN083hPP/305tjzbGO7fCf50CKPOVPCM/07t8kJzXJ/+d7t9nHUKeJZd6a253XJNmRbMh0+x8mX5yVnWk9Rz58583nWkWO08/q0T1aX5XNZtin3nZkI5YOQ3K68bvnasHz/90MPPdSsM2d3b09Vz/Hp+aBG+X4jyjcAAAxY7OU7U5lTDtujrymNGRXt+4qwjFinALbL9yWXXNIUw24xTlIQc5K2nKirJCPnKZrtspYpzjlGPN/h3VeWU1RzH90TrqX0pexefPHFM26X7cuU99lM1c5oe5ZtP6Z2UqqzTLY9hTVFOuU4swDyneLtZVNMs66U9SyfY6dLAW5PO0/ymDPKnHVm2Ty+Cy+8sPkO8xTf7rrzdWeZvp5lU9qzfIrvscceO/3hSY4Pz2uUkfN8oFC2IR9SdJ+HnCE+25lkPe3v787rlu9Oz+2zLXmO85hT7NuvQfmqsfYHBYs5yjcAAAxY7OU7I7vt78dOMgqd0c/82b48yeho9/ucU9wzyt035bkkxe7uu+9uSl3fCHOSKdft6e/t5D6yTd37yM8px91tTbFf2/raSXHNV3b1XddO7iclM6PQebx9yyQ55juzAPJYS+HNidi65bsko8p5bso2pJTnsfYdc53bZwQ7BT330Z6x0E7WmWWyDWt7XTKCnvUMPf68bnnM2b48n93r81oObetijPINAAADFnv5lk2TtZVvWThRvgEAYIDyLZsimfq99957K98LPMo3AAAMUL5lUyQnKsuJ0ZTvhR3lGwAABijfsimS0r22Y69lYUT5BgCAAcq3iIwV5RsAAAYo3yIyVpRvAAAYoHyLyFhRvgEAYIDyLSJjRfkGAIAByreIjBXlGwAABijfIjJWlG8AABigfIvIWFG+AQBggPItImNF+QYAgAHKt4iMFeUbAAAGKN8iMlaUbwAAGKB8i8hYUb4BAGCA8i0iY0X5BgCAAcq3iIwV5RsAAAYo3yIyVpRvAAAYoHyLyFhRvgEAYIDyLSJjRfkGAIAByreIjBXlGwAABijfIjJWlG8AABigfIvIWFG+AQBggPItImNF+QYAgAHKt4iMFeUbAAAGKN8iMlaUbwAAGKB8i8hYUb4BAGCA8i0iY0X5BgCAAcq3iIwV5RsAAAYo3yIyVpRvAAAYoHyLyFhRvgEAYIDyLSJjRfkGAIAByreIjBXlGwAABijfIjJWlG8AABigfIvIWFG+AQBggPItImNF+QYAgAHKt4iMFeUbAAAGKN8iMlaUbwAAGKB8i8hYUb4BAGCA8i0iY0X5BgCAAcq3iIwV5RsAAAYo3yIyVpRvAAAYoHyLyFhRvgEAYIDyLSJjRfkGAIAByreIjBXlGwAABijfIjJWlG8AABigfIvIWFG+AQBggPItImNF+QYAgAHKt4iMFeUbAAAGKN8iMlaUbwAAGFDvKL8lBVxkKHfddddOBxxwwFX777//NbfffvvOfcuIJHUBf0dVVW+aensBAABgtrbaaqu3brnllr9ZsmRJtXz58j+YuhgAAAAYi/INAAAAE6Z8AwAAwIQp3wAAADBhyjcAAABMmPINAAAAE6Z8AwAAwIQp3wAAADBhyjcAAABMmPINAAAAE6Z8AwAAwIQp3wAAADBhyjcAAABMmPINAAAAE6Z8AwAAwIQp3wAAADBhyjcAAABMmPINAAAAE6Z8AwAAwIQp3wAAADBhyjcAAABMmPINAAAAE6Z8AwAAwIQp3wAAADBhyjcAAABMmPINAAAAE6Z8AwAAwIQp3wAAADBhyjcAAABMmPINAAAAE6Z8AwAAwIQp3wAAADBhyjcAAABMmPINAAAAE6Z8AwAAwIQp3wAAADBhyjcAAABMmPINAAAAE6Z8AwAAwIQp3wAAADBhyjcAAABMmPINAAAAE6Z8AwAAwIQp3wAAADBhyjcAAABMmPINAAAAI1q6dOnyumQ/WOehkrp4P1n/+ds6Vf33p9rXJfVlO9Q3fdMbawAAAADWaquttnpzXab/KkV7lnl9zz33/KdTNwcAAABmoy7UR9dpRrrXlbqoH1ffxKg3AAAArI/1GP026g0AAAAbqi7W6xz9NuoNAAAAG2EWo99GvQEAAGBj1QV7cPTbqDcAAACMYC2j30a9AQAAYCx10V5j9NuoNwAAAIyoZ/TbqDcAAACMrS7c06PfRr0BAABgAlqj30a9AQAANsSrr776lpdffnmJyNpyyCGHXHTwwQdf/Pzzzy/ru14k+clPfvKOqqrMjAAAgK7sMP/oRz/6bb3TXIkM5YUXXmjSd51IyY9//OOfvvrqq2+eensBAAAK5VtExoryDQAAA5RvERkryjcAAAxQvkVkrCjfAAAwQPkWkbGifAMAwADlW0TGivINAAADlG8RGSvKNwAADFC+RWSsKN8AADBA+RaRsaJ8AwDAAOVbRMaK8g0AAAOUbxEZK8o3AAAMUL5FZKwo3wAAMED5FpGxonwDAMAA5VtExoryDQAAA5RvERkryjcAAAxQvkVkrCjfAAAwQPkWkbGifAMAwADlW0TGivINAAADlG8RGSvKNwAADFC+RWSsKN8AADBA+RaRsaJ8AwDAAOVbRMaK8g0AAAOUbxEZK8o3AAAMUL5FZKwo3wAAMED5FpGxonwDAMAA5VtExoryDQAAA5RvERkryjcAAAxQvkVkrCjfAAAwQPkWkbGifAMAwADlW0TGivINAAADlG8RGSvKNwAADFC+RWSsKN8AADBA+RaRsaJ8AwDAAOVbRMaK8g0AAAOUbxEZK8o3AAAMUL5FZKwo3wAAMED5FpGxonwDAMAA5VtExoryDQAAA5Tv8XLLLbdUn//856sLL7ywevrpp3uXEVnIUb4BAGDAYi/f99xzT3XttddWK1eu7L1+tjnzzDOrbbfdttphhx2qHXfcsbr++ut7l5PNkwcffLA6+eSTqyuvvLKq/733LiMbH+UbAAAGLPbyfdppp1Vbb7119dBDD/VeP5s88sgj1TbbbFMdeeSR1XPPPdfk2Wef7V1WJpcf/vCH1Y033lg9+uija1yXy3fZZZfqqKOOUr4nGOUbAAAGLPbyffrpp1dLly6tvv/97/deP5vccMMNzYj3V77ylZSP3mVk8rn77rur7bffvrrooovWKNj5MORb3/pW9dhjj824XMaN8g0AAAMWe/n+9Kc/Pavy/dJLL/VennzjG9+oli9fXt1xxx2915ekEK7PqOu6lh3aprVt62yytvtdn3XP5rHmw4qxnpNMLc/U/8svv3y91tnO+j53G/tcL7Qo3wAAMED5XrN8Z3T0uOOOqx544IHm78cff3y19957Vx/84Aerq666anq5THM+5phjqn333bdZx3777VcdfvjhzTrb5e+mm25qpqTvs88+TQ477LDeY8Jzu4svvriZtp77fN/73ledf/75zbpS7I899tjmPm+99dbqkEMOabYp91+mzGd7s925/NBDD61uvvnmNe6jLxmx/8QnPtEUybPPPru5349//OPViy++OL1M1nXEEUc027///vs3x08PTdW/7rrrqg996EPNsh/4wAeaE9B1j6m/6667mseT5yzJ4/j2t789Y5mMVufxZMT6mWeeaQ4RyLK5/89+9rPN85TlUuA/+clPVu9///ub12HPPfesPvzhDzfP83e+851mmUxF/9jHPtZ8UNIt5nnecvs87r322qt5nS+44ILq+eefn7Fczg2Q5yW3/9rXvlYdfPDBzfInnHBCde+9985YdrFG+QYAgAHK95rlO0UqI9kphDvvvHNT4jI9fdddd62222676oorrmiWS6FMGUvJzDryZ0pvSmIpeOedd161YsWKptide+65TWl873vf24zQfvGLX5xRBFMaU+RT/nbfffemyOdEblkmJwrLfafo7bbbbtWJJ57YFOAcr54ymusz9T23ybbmpG95DCm5Zf1DSfHOMespw7mPrCN/L4X5kksuabb36KOPbh77Oeec0zwXOYY6x7u31/W5z32uebwp3Xl8Kby57Wc+85npx5rjr3N/WebSSy9tynk+MMhjKWU5yRnjc1lehzy3eQ7zfKRY5z6yPfmAIOX7pJNOqg444IDmdcjzm/KfDyhKKc6J9fL8lA8zyn2k2Geq+nve857mdcs2p1Tnucvz0P7Q4Iwzzmi2Ox8I5N9F7jPJ48vtN+bQhYUS5RsAAAYo32uW7/vvv78pfcuWLZsu2smTTz7ZlK4UwfaocJl2ftttt01fltx+++1NSUxhbhe+FLoU7NxHRl3L5SmLKb8HHXRQ9dRTTzWXpVjmz4y05roUxfYIccprLs+2to91zjK57zJSW5bvSwpz1pvCft99901fnvvOz3ls3fXk+UoRTXEvl+fx5z5TSNvLpvhm+3PZD37wg+a+Urzby2QUO2U+pblM5U75zvOd+8mIfHv53Efuqz2SnecyRfjLX/7yjGWTlPBc136OMpqeDzmS7rHgKfl5PtpT2PNBSgp8PijIv5GybGZD5DF1P0xZjFG+AQBggPLdX767o7UlGRFO0UpxK5d9/etfbwpqvue7vWyKaQp2jkVuX56kNKY8tstgCulOO+3Ue1KwTHnO8hnhLoU8SeFM+c7ocHtb8/eMAGe0uPsYuslofNbRN009xTyPLaW5e13uM9v7wgsvND9n6naWffjhh9dYtiTbn8fRnWKeZEQ9RbucrTzlO69Dprt3H0OZndCe4l8Kdj6Q6Fu+W75zory8ln3L575TtDProXwYkJkLuc/26HxZNutufxCxWKN8AwDAAOV7uHynlLWLbpIR4BTEJ554YvqyjOr2le9MX84U8fYoeUkpzZnCXApbpo/nuOW+ApfynfvIaHr78rKeFN/u7VLmc4z0ugphpqnnQ4Iy2t5Ojj3PdXmePv/5zzdlPH+eddZZzfHOGXFP+cyyKaoZqe4e391OCmyev2xvRpezviTry/OV68roe9abn0899dQ1HkO2Na9RpoaX67773e82l2WafHf5vvKdKehZf0bm28uWZIQ7HxSUr43L6Hseb/fDhXwQk+Xywcy6nuuFHuUbAAAGKN/D5btd1EoyhXy25TvTx3Mcd1/5zv3lNjluudxHjlk+8MADewtcKd852Vr78mxrynffqGvWNZuR75Tv7mMqyeh2Kbn5juyMQpekbOY46PL4MmU8HzZ0T1TWTjluOlPs89jb68t95Tj28iHA2kaUc+K5FN4cAlBGpte3fJcPAnK79rIlee5yfdmelO98EPG9731vxnLZzmxL+4OUxRrlGwAABijfkyvfKaM5EVffSHDKYEpze2r7XCzfKZS5bm2j2SUZ+c5x0uUs5H0phbd7ora+rG3k+/HHH2+uax9PX8r3ZZddtsbyfeU7ZzTPc9o3BT7LZNp+RvfLhwnK97qjfAMAwADle3LlO6Ux67nzzjtnXJ6UE6W1y/RcLN8pyzkuunu/fcl6si19ZbaMjue5yrHUfaPT3ZRSm8eRke72dddcc02znnw1W1lPpo/nOZrtyHeOu886MuW9u3ym82dd+fdRrlO+1x3lGwAABijfkyvfKXwpZZl+3l5/imzWn2Oyy8nKko0p35mu3b3dGOU7Jz9LQc2x4+3v9c6x8DnxWPuDhZTfbEsebxnZTmnOidRynHi2I8dPZyp+1tkt6Sm87ceXUpszoOdx57kqz2GWK+ton5wux2Lnec13qmekPiPwZcS+r3znujK1PK9duTzbnvvLY2mfLE/5XneUbwAAGLDYy3dO/JVS1i6WKWqZPp2vluqWqRynnAKWac/lsquvvro563e+v7q9bLkuJS4n6soyWW9un5OLlbN6l2Sa8x577NFb4PJ1Vrl994zkKd+5vD39uiTrytdorasQpringPadZT1JMc2J1PIYclK4HPudn1OK8x3d7fVnynfWlQ80sl1ZJj/nK9vKctnmHKud5yHTuvOcZjtTYE855ZTp5UqpzbHgWSbryjqzHbk8z3f3seWx5LoU8zzXeb6yzN133937mqZc57vVs425PuvPtudwgXLbsmyOV+8W8iTbmW1L6S/Hny/WKN8AADBgsZfvO+64oxkNbR+nnDKV6cwpie1lk4zMZlpze8Q6I65f+tKXBstrRmpT+jINPcd4ZxS77yRsmUqd6zKq3L0uhS/b1B2dzkhyLu+b6p11pfx3C2o3+X7urKOc1bsvud88xjyGFORMR8999m1rPrz4whe+0Cybx90dKU4yIv7Vr361mXmQD0CyfJ7b9vOS1yGlOCPzeQx5LKeddlozkp7ntL2+krwu+W7urDdnM2+fvC1T/dvfY16SbcmHA7lN1p9/D+0PV0oy0p/rulPgc59Zd7Z/Xc/1Qo/yDQAAAxZ7+Za5mxTmzErw/dnzJ8o3AAAMUL5lriblO1PTle/5E+UbAAAGKN8yV5PynWOple/5E+UbAAAGKN8yV5PjyXOcdY6p77te5l6UbwAAGKB8i8hYUb4BAGCA8i0iY0X5BgCAAcq3iIwV5RsAAAYo3yIyVpRvAAAYoHyLyFhRvgEAYIDyLSJjRfkGAIAByreIjBXlGwAABijfsiny3HPP9V4uCyvKNwAADFC+ZdK55JJLqr333ru65pprqvrfWu8ysjCifAMAwADlWyad888/v9p1112rK6+8ckb5vvzyy6tzzjmnevHFF2csL/M3yjcAAAxQvmXSSeH+4Q9/uMblH/zgB6sVK1Yo3wsoyjcAAAxQvudPnn766er++++vHn744d7rS5544onq3nvvrR5//PHe69vJMg888ED1zDPPzLi8FOb2SHXJ888/X61cuXLGZc8++2z1wgsvNH/Pdn7/+99vlsvPWUeuK+t66aWXmtsfdthh1W677VY9+eSTze3L8rl9+Xs3uW22tW+7ZPNH+QYAgAHK9/xIpm6/5z3vqXbeeefmz/3333+NEv7oo49WxxxzTLXjjjs2y2VU+fDDD6/uu+++GcslKee5bptttqm23377avny5dVnPvOZ6ROj3XrrrdWee+5Z3XjjjWvc9thjj60OOeSQGQX44IMPrs4888zqnnvuaQr1dtttV51++unNMjnWe4899miuy7JXXHFFtcMOO1RLly5tsvXWWzfbmm3P8lnXgQceOF3m2/nUpz5Vvfe9762eeuqpNa6TzR/lGwAABijfcz+XXXZZU07PPvvs6qGHHqruuOOO6tRTT62+/e1vTy/zgx/8oNpnn32q3XffvbrhhhuqRx55pPr617/eFNWkPbL9ve99r9pll12qnXbaqfrKV75S3XnnndW5557bFOKvfe1rKVDV9ddf39xn9zjtJOU462xfnqKeZJ0nnHBCdcEFFzTryjLZ/pTxbHeW/e53v9tcv9deezXF/6yzzqrOO++86pZbbmnu+9Of/nRzeVm+JI9h2223rT784Q+vsU0yN6J8AwDAAOV77ueII45oRrvXVjgzap2CmxHt9uW33XZbc3kKcLl9ynFGvFOC28tmJP2xxx5r/p4Cn9Hwq666ao37zah3zl7evjwj1bmfFOfu8jmxWkpz+8OC5Oijj24+LMhU8vblmQaf7TvllFNmrKt8IHDdddetcR8yN6J8AwDAAOV77uezn/1sU14zfTsjw93rU15zNvGcwKxbSvNzRrTLlO5M5c7P3Wnj3axv+c4odkbeu0U6GSrf+VAh5bt7/HiS0fV84JDjv8tlH/nIR5ptb18mcyvKNwAADFC+534ypTxlNAU2f2aqePuEZCmjKd8pqyngH/jAB5pk2fyZ22WUOWU5JzfLMdYnnXTSqOU709BzArW+dW5I+c5jzNTzbEfWmecg6zj55JPXut2yeaN8AwDAAOV7fiRfx5Xjr1OoU4pTqnNG8VyXYpqTrOUkbBdeeGFzPHVJfk6R/c53vtMsm2nly5YtW2f5zhTv3M/VV1+9xnKHHnroGuU7J1TL5X3r3JDynQ8JMsU8J3fLOq+99tpmWvu3vvWtNZaVuRPlGwAABijf8y+Zfp4i+vGPf7wppplKnhOdDY08t5NR8hThj370o2td9qabbmrKd+6ru1zfyPeGlO+cbT3le+hrxY466qjmdvkaskybz1nU+4q6zJ0o3wAAMED5ntvpO8Y7SdnN6HcpuzkeOtPJy2j4ULK+Mnre/R7wfK93+QqvjJRn2ne+2qtdqG+//fZmlD0nWBujfOdDg6HyffPNNze3y9nQs1zfydxkbkX5BgCAAcr33E5GfTP1OtOuU4wzcp0ym/KcUlrK6N13391ctu+++zZTs7Nclk/hzQnbcn1ZZ0a1M3Ke8p6zod9///3N9PKMZpeR7hTi/fbbrym/ue8sc/HFFzfHduf48kxxbxfhXP6hD32otxx/+ctfbrYtX2nWvvyMM85oCv4ll1zSrL97fUb0s96c+TxT5btnZ5e5F+UbAAAGKN9zOznW+8QTT2xGtTP6u/POOzdF9BOf+EQzUt1eNqU6I9Apq1k2ybIHHHBA893e7WXz1WMZwc56k6VLl1Yf+9jHmuPHyzIp7Cm/Kc7l/m+88cbmq8py+WzLd+4r6+iOfOf485T4FPxcf+SRR65x+3z/dwp6PijoO5O6zK0o3wAAMED5nh/Jd1+n+OZEaPl73zJJjom+4447mu/C/sY3vrHG9363k5Oa3XLLLc1yQ+vM6Pmtt97aTAEvU9LzfeDd5TNyPTTlPbdLke87Xjsj9N/85jeb+2gX/5JcnhOv5cRxfcVe5laUbwAAGKB8y1zO8ccf34zkp/D3XS9zK8o3AAAMUL5lriYj6ZmSPnQiN5l7Ub4BAGCA8i1zNTnRW0769vWvf135nidRvgEAYIDyLXM1OeN6jgnvu07mZpRvAAAYoHyLyFhRvgEAYIDyLSJjRfkGAIAByreIjBXlGwAABijfIjJWlG8AABigfIvIWFG+AQBggPItImNF+QYAgAHKt4iMFeUbAAAGKN8iMlaUbwAAGKB8i8hYUb4BAGCA8i0iY0X5BgCAAcq3iIwV5RsAAAYo3yIyVpRvAAAYoHyLyFhRvgEAYIDyLSJjRfkGAIAByreIjBXlGwAABijfIjJWlG8AABigfIvIWFG+AQBggPItImNF+QYAgAHKt4iMFeUbAAAGKN8iMlaUbwAAGKB8i8hYUb4BAGCA8i0iY0X5BgCAAcq3iIwV5RsAAAYo3yIyVpRvAAAYoHyLyFhRvgEAYIDyLSJjRfkGAIAByreIjBXlGwAABijfIjJWlG8AABigfIvIWFG+AQBggPItImNF+QYAgAHKt4iMFeUbAAAGKN8iMlaUbwAAGFAX77fXO8wP1nlIRGRj8vLLL99Yv6f8w6m3FwAAAGZrq622euuWW275myVLllTLly//g6mLAQAAgLEo3wAAADBhyjcAAABMmPINAAAAE6Z8AwAAwIQp3wAAADBhyjcAAABMmPINAAAAE6Z8AwAAwIQp3wAAADBhyjcAAABMmPINAAAAE6Z8AwAAwIQp3wAAADBhyjcAAABMmPINAAAAE6Z8AwAAwIQp3wAAADBhyjcAAABMmPINAAAAE6Z8AwAAwIQp3wAAADBhyjcAAABMmPINAAAAE6Z8AwAAwIQp3wAAADBhyjcAAABMmPINAAAAE6Z8AwAAwIQp3wAAADBhyjcAAABMmPINAAAAE6Z8AwAAwIQp3wAAADBhyjcAAABMmPINAAAAE6Z8AwAAwIQp3wAAADBhyjcAAABMmPINAAAAE6Z8AwAAwIQp3wAAADBhyjcAAABMmPINAAAAE6Z8AwAAwIQp3wAAADCiZcuW/Uldsk+tC/fpJXXxPr++7Lcp3/XPF7avm7p+h/qmb3pjDQAAAMBa1WX69+sy/f9O0Z5t6tv8z/VNf+eNNQAAAADrtHTp0i/WpboZ6V5X6uJ9R32T333jlgAAAMCsrM/o99SoNwAAALC+ZjP6bdQbAAAANsJsRr+NegMAAMBGWtvot1FvAAAAGMHaRr+NegMAAMBI+ka/jXoDAADAiPpGv416AwAA///27j3WtrJO9/zR8ngq1dXGTlfsPnU6xpycmOqTjud0p2POHxY3AW+oqOAV8AZeQFARb6AC4v2ON0AFvCG6UfGGgArbC6joRu66lwtiSKdiSKiumEo1sS0z+n3mXu/uwWSstdee6117jTn355t8s/aeY8wxxhxrzXf+nvG+75gAGtPv/dbrDQAAAADAJtDv/dbrDQAAAADAJrHS+315+adebwAAAADYW2666aZH7dy582133HHHWeRqXn311R/40pe+dP7QMrJ62223vabrOhdo9hOWlpYeu7y8fBC56P7mN7/529K2PXjlTx8AgNkoHygH3X777X/+9a9/3ZHkRiwB/O7f/e53f7nSvGDOSbgunxEvKz8/Ubxm586ddxX//Nvf/rYj93N/Ut4TV5af7ygeUfxfhHMAwB4Rvkm2Uvieb/K7K58JR5VQcVkJ2X9aCRkk12F539x95513frD8/C/btm37i5W3FQAA/z/CN8lWCt/zyd133/24Ehg+XQL3Pw+FCpJ7Z3k/LZX305tKffU/6xEHAOxG+CbZSuF7vrjrrrsOLRnh6hIW9HKTm2AJ4H8o77H3lFrrUUI4AED4JtlM4Xs+SOguoeCGovnb5D6wvNfuKyH8vFJzuXEbAOzPCN8kWyl8j5vyu3l4CQEXFPV0k1tgCeD3lLrrqG3btj105W0JANifEL5JtlL4Hi8rQ8x/p7ebHIVXlNrrP+kFB4D9DOGbZCuF7/GR30cp9M8twfv/nSr+SW6hO3fu/EOpwZ66Y8eOf7vydgUALDrCN8lWCt/jYmWY+Xa93eQ4Le/N+4qnajcBYD9B+CbZSuF7PJSC/jFLS0u/EbzJ8bu8vHxe13V/tfL2BQAsKsI3yVYK3+NgZX73Pw0V+STHaXnPXnPzzTc/oryFH7TrnQwAWDiEb5KtFL63HsGbnF8FcABYcIRvkq0UvrcWwZucfwVwAFhghG+SrRS+t45SsB+wc+dOwZtcABPAy8+Hrby9AQCLgvBNspXC99ZQ2vBHlkL9H/rFO8n5Njdh+/3vf//frbzNAQCLgPBNspXC974n57sU6te7qzm5eJb39fHl579bebsDAOYd4ZtkK4XvfU8pzC8tBfqf+gU7ycWwvLfvKz8P77ruIStveQDAPCN8k2yl8L1vWV5ePrUU53+cLthJLo5LS0v3lHb1USWAP3jlrQ8AmFeEb5KtFL73HeV8P7oU5v84XaiTXDx37tx5aanV/nrl7Q8AmFeEb5KtFL73DTnHpRjfXjTPm9xPLO/3Y7uue+hKMwAAmEeEb5KtFL73DUtLS6cXDTcn9yMz/LwE8L8z/BwA5hjhm2Qrhe/NpxTfjylF+P89VJyTXHi/ds899xh+DgDzivBNspXC9+ZTim93Nyf3Y5eXlw9y93MAmFOEb5KtFL43l3KOj1haWspXDw0W5ST3C28r7ezDV5oFAMA8IXyTbKXwvbmUovt6N1kj6eZrADCnCN8kWyl8bx6l4D6xFNxuskZycvO10ub++xLAH7TSRAAA5gHhm2Qrhe/NIee0BO+79HqTrJYAfkYJ39pbAJgnhG+SrRS+N4fSTh9lrjfJvqVNuPvWW2/9H1aaCQDAPCB8k2yl8L05lELbXG+SD7C0u8eZ+w0Ac4TwTbKVwnd77rrrrkNL8NbrTXJIdz4HgHlC+CbZSuG7PaW49r3eJFe1tA/P1vsNAHOC8E2ylcJ3W37/+98/Ymlp6V+GCm6SXPFrpZb771eaDQDAmBG+SbZS+G7L8vLyqTt9vRjJNcy0lFtvvfU/dl334JWmAwAwVoRvkq0UvttSCusbS2HtRmsk17TUcqdpewFgDhC+SbZS+G7H0tLSY9OjNVRok2Tf0l5cd++99z5spfkAAIwV4ZtkK4XvdpS2+b2lqDbknOR6/d+3bdv2FytNCABgjAjfJFspfLdjaWnpDkPOSa7X0mac0XWd9hcAxozwTbKVwncbyrl8dCmm3eWc5Lo19BwA5gDhm2Qrhe827Ny586SiIeck123uEXH33Xf/bdd1D1ppSgAAY0P4JtlK4bsNpZC+vPinfmFNkntyeXn5adu2bXvoSlMCABgbwjfJVgrfGyfnb2lp6R+HCmuSXMsSvs8rNd1frzQnAICxIXyTbKXwvXFK8D7AV4yRnNHbShv88JXmBAAwNoRvkq0UvjeO+d4kN+LS0tJ/MO8bAEaK8E2ylcL3xlleXr64hG/zvUnOZKnrnlDC90NWmhQAwJgQvkm2UvjeOKV4vrGEb9/vTXImfd83AIwY4ZtkK4XvjZG5mqVw9v3eJGd2586dl5a6zk3XAGCMCN8kWyl8bww3WyPZQDddA4CxInyTbKXwvTHKOTzezdZIbsRcwCttyf+40qwAAMaE8E2ylcL3xlhaWjq9KHyT3JClrvvPXdc9eKVpAQCMBeGbZCuF741Riubzd7rTOfexpQ6YvH+HlnE+XV5ePsgdzwFghAjfJFspfG+M0h5fubS09K9DxTTn2wTcL3/5y90nP/nJ7itf+crk/0Pr7Y0///nPu4suuqg7//zzu+3bt2e48eB6a/nNb36zO+GEE7pjjz22e8c73pH38OB6nC/L38KzS/h+6ErTAgAYC8L3fPmLX/yi+9znPtfdcMMNg8vJrVT43hilaPY1Y3NiwnPC6ste9rLuJS95yQM8/vjju9NPP727+eabJ+tfffXV3ROf+MTusMMO6w466KDuyiuvnCks983+n/KUp3RPeMITule+8pUZajy43lpefPHF3dOe9rTu8MMP7170ohd1t9122+B6nC/L3+dp2mIAGCHC9/r86U9/2l111VXdFVdc0X3nO9+Z/Lz22msnvQRD62+Wl1xySffkJz+5u/TSSweXk1up8L0xlpaW/mGokOb4TJh+0pOe1D3+8Y+fmFDdN4E4IfsnP/nJJGTncyPrZ1nW/9a3vrXh8P3Wt7518nmQfb3whS+cKTh//vOfn2wjx/SKV7xC+F4Qy9/W+3bs2PFXK00LAGAsCN/rM0XOoYce2h1xxBHd05/+9Emhkv+/+MUvngzbG3rOZpjwnR6KDFscWr6Vfv/73584tGzezMWWFMu33nrr4HIOK3xvjFI0//N0Ec1x+rWvfW0SWhOwDznkkO7II4/snvnMZ97PfD6UADRZ/1e/+lV3zjnnTB5717ve1d14440P2Obemt7z17zmNd2rXvWqyWdDeuOH1ltL4XsxLeHbd30DwBgRvtfnaaedNgnb3/ve97rrrruu++53v9t94hOfmDyWYX+Zezf0vNZ+6UtfGm34TlH57Gc/e1K8DS2fJz/4wQ9Ofrc/+MEPBpdzWOF7dsp5e/jS0tK/DBXSHJ+XX3757p7vDNvOSKhcrMsw83jTTTfNNAx8Xyt8L6bCNwCMFOF7fb7+9a+fFCjTwfIDH/jApAC78MIL7/f4Zjnm8P3Sl760e+5znzspOIeWz5PnnnvuJHxnyOjQcg4rfM9Oed88UvieH/vhO73euQ/H0HrVvD+++MUvTm64lsCbKUt12TXXXDO5adqnP/3p3b3X27Zt6975znd2b3nLWyafM0M3VLv++uu7Cy64YLLNXBieXp6Lh2nLzjrrrO5tb3vbZDsZqdXvIe+H7xNPPHHSfn/961/v3vOe93RnnHFG9773vW8yxH562xy3wjcAjBThe30mfKfQytDB/uMZ6peh6OkpnQ6dKXxS9OSGPLn5zpve9KbJUMX+OtVbbrllUny9+tWvnvQgZyhhCqr0nvTXWy18f+QjH5kMjc8Qx/7jQ2a+eHrys58UW7lpz49+9KMHrJcb8WSYZIZH9h/PTd/OPvvs7qtf/erk/5dddtlk30996lMnNxR6wxveMLnR0Mc+9rE1g3hGC6QwrK85P88777zBod4pRF/72tfuPjcpGKcvhHzqU5/qTj755Mk6b3zjG7tvf/vb91seM5w8Qz7r7yTH3R8qn/OQx17wghdMhpNme29+85u7M8888wG/ez5Q4Xt2yntF+J4j++E7U5HStgytV027mfYxpm3JCKry+54sy+dHnc6UO6Kn/cx6mcudi4CZJ57lCc79EPzxj3980u7mOE499dT7BfqE8jyez4u633q8abvrdvrhOzeKy2dW9tvfd54767B2bo3lb+u6e++992ErzQsAYCwI3+szYTWFy3SYTFBL0TI91/kLX/jC7oInQTDPT4GTYubDH/7w/bbzs5/9bBIEsyx3rE0PRcJfiqaExP6dzYfC99vf/vbJ0PcE4rXmKKcwS4jM85/3vOdN9pP95fhTwOUmcv31EzwzlzG9K/3Hf/jDH04Ks+w3ryO9NdlethMz1/Goo47avbz/3GpeU9bJfnN+EogTmrPdXKToPy9FZI75pJNO6j70oQ9NQvqznvWsSbGb5Vk3xWqKxGwrvTspInNhoR/Q03vzjGc8YzJENMcWU9Dmd5T53XWd5zznOZPHUiBnefaV38P0RQg+UOF7dkoYekwpmoXvObEfvtOu5OLc0HrVtHlp77J+2vof//jHuwPwRz/60Umbc/DBB0/a8rR3ac/Slmb9tEX5f74OLBdk6zYz9SnPy/b64TtzwWugzrG9973vnVzYzOdQtp9vzKhBuobv7KPuJ+1+npfn55iy/RzLnnr3OR6FbwAYKcL3+kxvbgqi9K6mRzimxzi93tNDztN7moIoX9vSnwv+y1/+chIKU8gk5NXHUzSl4Jm+g3l6vlMU9UNsDd/pCc7/MyQw6yRwrhZ0qznOrJuQ3l83oTv7f/7znz+Zq1gfT29/jrWG3GqKxhRlKej628lrS3Bdz5zv+pVp0z319WJA7YnPthKAE377+0oRmNEC+XeGY+ac5Fz018m5TzGaf+eiRF5fttX/neQ4UlTmd1W3F835nk3he3ZKsXxACWP3DRXSHJ81fCeopr1Pe5g2O73RMcE4o29qwE6blQt/ad/S3ta7oGdZDd8Jv2l30g5mGHku+OVibdq3hOAs739FWfZXw/frXve63eG7H8ozoqrfY52Lqfksqr3u/fCdYzvuuOMmx519f+Yzn5ksy76zLJ87dd8ct8I3AIwU4Xt9pmc1xUcKrZhiJAVUTCDvB84EtxQ+Q0PMM5cuvbuZT5egmCCbAik9Ev3gWM0c6oTDGopr+M7wwxRV2c/73//+wef2TVF2zDHHTHpepoeyxww1zGvp937vbfhuMef7s5/97OT8fOMb35j8P4E48ykT7FfbbuZL5tinLyr0ze8i5yrbn14nw+Pz/H7QTsGb155t99fl2grfsyN8z5c1fCe09j8PqgmtGaVTA/F6wneW5SvDclGw7ifrpO1Oe5T9pC3bU/iuj2d7OYZccKzbm7Y/7DyjfPo98jEjiLL9LM9F536Q53gVvgFgpAjf67P2fKc3IsOuUzhlqHICasJihp/XUJe5yVk3BdT0dhJkU8jUntzMvcu66WFI4TS9fnrFU/TUEJjwnefXiwFrBc6+OZYcZ+ZLD61/0UUXTYYjpsemLp+153tvvp4rQzVzISE3Ispry1D47DPfgVvXSWGaIjfD0jOcf3rudS581HOen7nA0V8eM+QyBW9GK+SiRYrTmH/nwkcK1Rr4Y+35XpSvTttXCt+zUwKPYedzZD98197vtKEJsjEXOjPNZ2/Cd9qcTLupz6nmcyDtW/aTdnJP4TvtVh0SH3MBNzdvG7pxWj981xuu9Zdn5FUN8mlHhe/5UPgGgJEifK/PBNEUKEPBNV/PkqIow5/z/3znatYduvlZQnCKmPRuZFu1Jzs9CkPhO3OYU6hlqGH+X8N3es5T6CXEr+cma+n5yPPyOoZeQ0Lt9I3jEkrznM0K3+mFzleTZb8ZEp557unlzrmcvllaLk6kVz3Hk7niKRj7+04gz9D7zFPMOieccMLk6+Dq8tyQLucxc9Nz7jN3sppQn/VzUaWuL3zPpvA9O+Xv2Q3X5sj+sPN6z4zcvyPtZczw7oxYquuvN3znQu90+K4XF9cbvmOCcqbZZF9ZHrPvevPIul4/fA991VjWF77nT+EbAEaK8L0+E1pTaE33usYEtRQvCbD5fwqlFDwptqbXTUGWIihDARMeM4cuPdK5aVk/TFbTU52iJ4Va/l/DesJpenhzTOkVGXpu34T+PG+1nu86Hzw94HV5isAc6/TrSIGZYxoK3wnI6wnf6WXO8WQfOScpGrOtnIecu37PdzXLM1IgQT37H+rhzjzFXMjIhYn09tSbxaVHP/urN1bbkzV8m/O9dwrfs1P+voXvObJ/w7VcNOwPFR9yX4fvmH2knc5Fx6yT5+fzJiOA6rrC92Ja/kZ81RgAjBHhe33W8N2/IVm1htTa05rhfSlw6ldx9U3YTiGTeeIpftKzmqIqhVPCZX/dLE8vb26AU5fV8J2v98r/M1c728tXdk0/v2+WJRin+Bua812HsadXuz6W75fNtq+99tr7rZs5hykep+ea157vtY6jmoIw28jX7fQfT2/4auG7mpuxZZ13v/vdq+4r28mx53xnnfzM729P56maXvT8TqdfO9e2/M0K3zNSztvDhe/5sR++08Oc3u6h9apbEb6r+dxK25f9Zv8ZbZSLqFkmfC+mwjcAjBThe33WecEpoNKzmwIld4ytd5V9+ctfvvtu2ektTaGUO2jXnteYIHf00UdPCrXam5xiKV+hleIpRVVdN9vKfO5sO0Ey6+XxGr7rV40lSNYb4mTudH3+kCnU0iOc7fYvImS+dS4WpOjrB9M6D7w/rzwhNgVkjqE/RD1muH2Oow6/X6sHPMPAU7jmDu/1teW85UJDirw67DwFal5zf1u5qJHjTSGY/We4Zwrhup2YY8sx1gsieb25MJAi86qrrtq9XkyPVbbRf35+r/2RAPl9918rhy3nUPjeAKVo/ufpIprjdMzhu47Q6m8joTnHWfdfv2dc+F5MhW8AGCnC9/pMz3cCX3oMUkCliEkwTdGT0Dk9LzqhLcti5jLHFC95fv/GXjFFUOYhZ90ExKyb7ef/+f7rfuirc7MvueSS3Y8l4OexuFZPbQLsm9/85knhlWGS2U/2l/0kwNcLAtX0kKcYS9GXudkZ7p1/507geS3TN3urFwZyXjKXevr7uvum97oOhcyFjZj52pl7neOrQ8oTlLNOhpCnd/6UU06Z/D+97PV4M4ogz0lwz43vMoc7x5f1U0jWfWbefP3u2jw/N3fLHdpzrqeH46cwzuMpdvNasu2E9LqcwwrfG6OEoXuHCmmOzzGH72wvbdwFF1wwuRgaM1Ip+41pI/N5kHWF78W0/I28b8eOHX+10rQAAMaC8L0+E5gzTy7hrpre27XmEKfXNYVLwnnmeGco83RIr+amaZmXnCIrPeG50drQV5WldzjHMf0VWOkpzhD0/leFrWYCfAq8BO6E3sz37n/Hdd96I7OE3qxbX2+G1g8Nq08vetZLIZgLBCkGp9ep5qJDLi7k/OQ5KWZToJ5zzjn3G/6e0JzznfUSklMA9ofOJzRnJEDOWc5d5sDnOIaCf4ZafuhDH5psJ+vmPOSO59MXHmLO5RlnnDFZNxcc1urJ5y6F741RwvcdpWj+81AxzXGZ9i83WkuYTQjPRdCh9appY3IBN+vnDun9r/RKm5SLllme9ms6fKetyj4SstO21QCckF2fl3aqPi+fJbkgUAN7/6vQEqRz7HXfuUdGXkfWTSifDt9pAxPO89x8LaPwPR+W39Np2mIAGCHCN8lWCt8bo7THV5YA/q9DxTTHZcJ2vm0io4fSY5wLqEPrVXPB8OSTT56M+Mn6uTlkXZbpPBldk/tyJDhPB9xcpMxIpSzPRcEanBOi6/MSxOvzMiUqF0gzYilhO8E63+GdYJ+LwvX5MRduM/Iq28h9NKaDf44no3+yPBc5+8/leC3t8XFd1z10pWkBAIwF4ZtkK4XvjVGK5vNLuPnTdCHN8Zq/+6HHV3O19RNqp0N33yzLHO3px9d6XvaV6TIZ8TPdo913PfsWuufL8jt7QgnfD1lpWgAAY6E00MI3ySYK3xujhKuzS+H8x+lCmiT3xlLX/ecSvh+80rQAAMaC8E2ylcL3xti5c+dJReGb5IbcsWPH36w0KwCAMSF8k2yl8L0x7rrrrkOXlpbuGyqmSXKd3lba4YevNCsAgDEhfJNspfC9MVIwl/D9LwPFNEmuy52+4xsAxovwTbKVwvfGKeHb142RnNnShpzRdZ12GADGiPBNspXC98YpxfOlJXy74znJmSx1nTudA8BYEb5JtlL43jjLy8unuukayVldWlr6DyV8P2ilSQEAjAnhm2Qrhe+NUwrnA0r4dtM1krPoZmsAMGaEb5KtFL43Ts5fCeD/OFBUk+SaLi8vn1dqOjdbA4CxInyTbKXw3YbSLl9ZAvi/DhXXJLmapR0+ruu6h640JQCAsSF8k2yl8N2GnTt3nmTeN8m9MdNV7r777r813xsARozwTbKVwncbShH9mFJM+75vkut2aWnpunvvvfdhK80IAGCMCN8kWyl8t6ME8LtKMe37vkmuy1LPvX3Hjh1/tdKEAADGiPBNspXCdztKMX1uCeC+75vkuixt73/bvn277/cGgDEjfJNspfDdjqWlpcdmDudQkU2SU/7ypptu8hVjADB2hG+SrRS+21IC+B0lgBt6TnJNS1txRtd12l4AGDvCN8lWCt9tKQX16UV3PSe5qhkhU9qJ/7WE7wevNB0AgLEifJNspfDdlnJOH12Kanc9J7mqpY24pvx0l3MAmAeEb5KtFL7bUwrraw09J7mape09ruu6h640GQCAMSN8k2yl8N2ecl6PKAHcjddIDnlbaXPdaA0A5gXhm2Qrhe/NoYTvG/V+k5y2tA1utAYA84TwTbKVwvfmUIrsE0v4duM1krstwfue0u7++xK+H7TSVAAAxo7wTbKVwvfmkHNawvdder9JVvV6A8AcInyTbKXwvXksLy+fqvebZNTrDQBzivBNspXC9+ah95tkVa83AMwpwjfJVgrfm0tpr48qRbc7n5P7t7fdeuut/5NebwCYQ4Rvkq0UvjefUnhfr/eb3H8t7/9jS/D2vd4AMI8I3yRbKXxvPktLS48t/j9DRTnJxba8968pPx+20hwAAOYN4ZtkK4XvfUNpt99bCnA3XyP3I3fu3PmHEr7/67Zt2/5ipSkAAMwbwjfJVgrf+4ac41KM32j4Obn/WIL3q7Zv3659BYB5Rvgm2Urhe9+R4eclfP/TUJFOcrFcXl6+ovw03BwA5h3hm2Qrhe99Swngp5cAbvg5ucCW9/k95X3+d13XPXjlrQ8AmFeEb5KtFL73PaUwv7z4p6GineR8W0L3fcvLy0/bsWPHv115ywMA5hnhm2Qrhe99TznfDy/h+w7zv8nFs7y3z+i6TpsKAIuC8E2ylcL31lDO/aNLof4P04U7ybn24lKf/fXK2xwAsAgI3yRbKXxvHXfdddehS0tLbsBGLoDlvXzNzTff/Ijy1n7Qrnc4AGAhEL5JtlL43loEcHL+FbwBYIERvkm2UvjeegRwcn4VvAFgwRG+SbZS+B4HAjg5fwreALAfIHyTbKXwPR5KIf/YnTt3/n6oyCc5Lst79dIdO3b8TXnrCt4AsMgI3yRbKXyPi9K2P7IU9T/zNWTkeF1aWjrd14kBwH6C8E2ylcL3+MjvoxT4F5cA/qfpop/k1lnek38oHlOC90NX3q4AgEVH+CbZSuF7vKTIL94zFAJI7ltL7XXN8vLy/3HmmWc+ZOUtCgDYHxC+SbZS+B43d9555yNK4X/50tKSXnByC1zp7T5x+/bt2kkA2B8Rvkm2UvieD3I39BIEflNCgLng5L7z4ltvvfU/dl334JW3IgBgf0P4JtlK4Xu+KO3/USUQ3CCEk5tjeW/dt7S0dF5pF/9O6AYACN8kmyl8zyfld3dECQiXlaBgODrZwPJ+uvvOO+/8YGkPHyV0AwB2I3yTbKXwPd+U393Dy+/x+BLCv18ChCBO7oUlcN9TvLC8hw4sgduN1AAADyTFVgI4uZpXXHHFEccee+xFxxxzzGe/8Y1vPG1oHTKWovO/6eVZDPLZUILEAXfeeedbSrD4WgnkdxmeTu4yw8nLz5+U98f7y89jys//bdu2bX+x8vYBAACYjQMPPPBRBxxwwJ8OOuig7vDDD/9PKw8D2I8p4eMxy8vLB3Hfevnllx952WWXPfP2228/ZGg5N8/yN/83Li4CAIBNRfgGgHFQ2uJ3Fz9c2mXTOwAAABYN4RsAtp7DDjvsEaU9vqe0xfc97nGPe3R5SC8sAADAIiF8A8DWs9Lr/ce0xQcffPAn9H4DAAAsGMI3AGwtvV7vbkW93wAAAIuG8A0AW0u/17uq9xsAAGDBEL4BYOsY6PWu6v0GAABYJIRvANg6hnq9q+XxT+r9BgAAWBCEbwDYGtbo9a7q/QYAAFgUhG8A2BrW6vWu6v0GAABYEIRvANj3rKPXu6r3GwAAYBEQvgFg37OeXu+q3m8AAIAFQPgGgH3LXvR6V/V+AwAAzDvCNwDsWw499ND/8+///u/fUtrfs6qlHf5w7Qlf+Y7vs/vLy3MeV576kF1bAAAAwNxRijrhGwC2mBKuH1na4j+kLT7kkEMeUx7Syw0AALBICN8AsPUI3wAAAAuO8A0AW4/wDQAAsOAI3wCw9QjfAAAAC47wDQBbj/ANAACw4AjfALD1CN8AAAALjvANAFuP8A0AALDgCN8AsPUI3wAAAAuO8A0AW4/wDQAAsOAI3wCw9QjfAAAAC47wDQBbj/ANAACw4AjfALD1CN8AAAALjvANAFuP8A0AALDgCN8AsPUI3wAAAAuO8A0AW4/wDQAAsOAI3wCw9QjfAAAAC47wDQBbj/ANAACw4AjfALD1CN8AAAALjvANAFuP8A0AALDgCN8AsPUI3wAAAAuO8A0AW89hhx32COEbAABggRG+AWAclHb4n4RvAACABUX4BoBxIHwDAAAsMMI3AIwD4RsAAGCBEb4BYBwI3wAAAAuM8A0A40D4BgAAWGCEbwAYB8I3AADAAiN8A8A4EL4BAAAWGOEbAMaB8A0AALDACN8AMA6EbwAAgAVG+AaAcSB8AwAALAgHH3zw4aWwu6a4vVqC98/Kzz8Xu/LvG/rLYnnsyeWpikAA2GRKmyt8AwAALAIHHnjgX5Yw/X+luFunvz/66KP/euXpAIBNpLS5wjcAAMCiUAq7U4qTnu49WYL6qeUpCkAA2AeUdlf4BgAAWBT2ovdbrzcA7ENKuyt8AwAALBKluNtj77debwDYt5S2V/gGAABYJNbR+63XGwD2MaXtFb4BAAAWjVLgrdr7rdcbAPY9pf0VvgEAABaNNXq/9XoDwBZQ2l/hGwAAYBEpRd4Der/1egPA1lDaYOEbAABgERno/dbrDQBbhPANAACwwJRCb3fvt15vANg6hG8AAIAFptf7rdcbALYQ4RsAAGDBKcXeKSWEv6b8U7EHbAK33377I2+77ba33HHHHWeRq3nooYfel/D95S9/+ZPl7+XsoXXI4ku2b9/+lyvNCwBgLPzmN785qBR9f/71r3/dkat5yy23TBxaRlZLwXf37373OwXfDJRzd0Bpi+8bOq8kuTeW9uS63/72tw9baV4AAGNB+CbZSuF7doRvkq0UvgFgpAjfJFspfM+O8E2ylcI3AIwU4ZtkK4Xv2RG+SbZS+AaAkSJ8k2yl8D07wjfJVgrfADBShG+SrRS+Z0f4JtlK4RsARorwTbKVwvfsCN8kWyl8A8BIEb5JtlL4nh3hm2QrhW8AGCnCN8lWCt+zI3yTbKXwDQAjRfgm2Urhe3aEb5KtFL4BYKQI3yRbKXzPjvBNspXCNwCMFOGbZCuF79kRvkm2UvgGgJEifJNspfA9O8I3yVYK3wAwUoRvkq0UvmdH+CbZSuEbAEaK8E2ylcL37AjfJFspfAPASBG+SbZS+J4d4ZtkK4VvABgpwjfJVgrfsyN8k2yl8A0AI0X4JtlK4Xt2hG+SrRS+AWCkCN8kWyl8z47wTbKVwjcAjBThm2Qrhe/ZEb5JtlL4BoCRInyTbKXwPTvCN8lWCt8AMFKEb5KtFL5nR/gm2UrhGwBGivBNspXC9+wI3yRbKXwDwEgRvkm2UvieHeGbZCuFbwAYKcI3yVYK37MjfJNspfANACNF+CbZSuF7doRvkq0UvgFgpAjfJFspfM+O8E2ylcI3AIwU4ZtkK4Xv2RG+SbZS+AaAkSJ8k2yl8D07wjfJVgrfADBShG+SrRS+Z0f4JtlK4RsARorwTbKVwvfsCN8kWyl8A8BIEb5JtlL4nh3hm2QrhW8AGCnCN8lWCt+zI3yTbKXwDQAjRfgm2Urhe3aEb5KtFL4BYKQI3yRbKXzPjvBNspXCNwCMFOGbZCuF79kRvkm2UvgGgJEifJNspfA9O8I3yVYK3wAwUoRvkq0UvmdH+CbZSuEbAEaK8E2ylcL37AjfJFspfAPASBG+SbZS+J4d4ZtkK4VvABgpwjfJVgrfsyN8k2yl8A0AI0X4JtlK4Xt2hG+SrRS+AWCkCN8kWyl8z47wTbKVwjcAjBThm2Qrhe/ZEb5JtlL4BoCRInyTbKXwPTvCN8lWCt8AMFKEb5KtFL5nR/gm2UrhGwBGivBNspXC9+wI3yRbKXwDwEgRvkm2UvieHeGbZCuFbwAYKcI3yVYK37MjfJNspfANACNF+CbZSuF7doRvkq0UvgFgpAjfJFspfM+O8E2ylcI3AIwU4but5Vx227dv737xi18MLmc7b7nllu6qq67qrrzyyu7WW2+937Kf/exnk8evv/76+z3OzVX4nh3hm2QrhW8AGCn7a/hOWNuxY0d34403rmqW33zzzYPPX82f/vSn3aGHHtq9613vmgTxoXW4cX/wgx90L37xiyfnOn74wx/efb4//vGPd09+8pO7ww47rDviiCO6H/3oRw94/pDf/va3uy9+8YvdTTfdNLice1b43kX5m3zkgQce+F/LPx+865E9I3y3NRdAL7roou6CCy7ozj///O68887rPv3pT3ff/OY3tc1ceIVvABgp+2v4TlhLQDv88MMnPuUpT+me+cxnTn7Wx574xCd2p5122l4Vaj/5yU8mYfDtb3/7fl3g1QsYQ8s2aikqule84hWT8/z5z3+++/rXv95997vfnSy7+uqrJ6H7xBNP7C6//PLu0ksv7W644YYHbGPIY445ZhLWU5z3H//lL38pkK9T4XsXBx988AEHHXTQfQcccMC3DznkkMeWh/YYwoXvtn7rW9/qnvSkJ3WPf/zju/L7mJh/p9045ZRTJhdKh563HjOiJoE+F/YE+dlN+5w2fHrkEjeu8A0AI2V/Dd/f+MY3uve+973du9/97okve9nLuic84QmTUFcfy/KvfOUrg89fzeuuu25S4L3jHe/Yr4uyhN+c0804Byl8U0C/6lWvesD2P/jBD04uqiR49x9fj+kVy0WTfljPyIfnPOc53RlnnKHIXofC9y5q+C52cT0hXPhua0ayJHynLc9F0UxFSVh+y1veMrnImvd0pq4MPXdPXnbZZd3Tn/707uKLL+5uu+22wXW4Z4899tjJRe/NulC7Pyt8A8BIMed7lymi0uv5uc99bnD5ehW+d5mi6nnPe96mnIP0WKV3+0Mf+tADtp9CO8H85z//+f0e34gZAfG6171O+F6HwvcupsP3ekK48N3WGr4/9rGP3a9nNWH5qKOOmryvE8j7z6n+6le/mlyEK7+TweUZbZOLfPm8aBm+s79MdxpaFtMGzXo/kQTcPHe111TNa9/TPrI8I4KGlvXNemsF6xNOOKF7/vOfL3xvguX3LHwDwBgRvneZeYHpDcnP1YqTzDP+5Cc/2b3tbW+bzOlO4TXdc7Ja+M5w6Gw7y/vrp2c18xLPOuusyXO+8IUvrLuYS5H22c9+tnvnO9/ZnXnmmd0nPvGJVec3p6f/Pe95z2S9T33qUw8orvKav/SlL016fs8555zJcMChoYAJtfUcZGTAV7/61fst/973vtddeOGF3bOe9azuyCOP3D3Pcnq9IXO+cgz1OLOfa6655n7rbNu2bdK7XYeOfuYzn5nM007PVvb7yle+cjK8NME8/6/D0eMPf/jD7txzz530fH3kIx/pvv/9799v2xlu3v+d5v85/gT9F77whZPzltfS32bM+hk6efbZZ0/OXy7k7K/D1MvfkfBdWC18V4dCeDl3wndDa/jOFKPptiwXBvO+nr4hY9qITDVKOE/7lZ9pb+q9P9LmZkRPemvTzjz1qU/tnvvc505Gx+QGj2nD0m68/OUv7772ta894IJd2vnXv/71u7eXdvfUU0/tPvrRj07asOOPP36y3w984AOTY77kkksmj+UiQdqzBNWE/uOOO25dnxXZRj5fXvKSl0yOOcf77Gc/e9J2J2T3180+3vzmN09ec9bNvtLe9c/dFVdcMRnVlPY96+S+G0Nz6NNWvuAFL+ie8YxnTNbLKKU8t66XdjuvIb+DfF5mnZzHt771rXt9nxUOW/62hG8AGCPC9y73FL5TgKWnJEVCAl6KrRQOKcT6PRVD4TtFRwqmFCI//vGPd6+bYiuhLkEy20whk+em2NrTPOUEwBxL5qZn/RRXpZifFFcJ2v11E0Szj2w/gXW6JzdBMQVnnp+iMa8px5GCsF9UZbspunKeTj755Elxle2+8Y1v3B1Yc54yfL+GjBSoOU9veMMbHlCg9U0RnF6QbC/nNj3nOYaYG6jV59a53nX7OeYUi7lYkP1kf/39JhDnuSmEM7Ihx//qV796UoDm99E/zzk32V/tNc856b+WmH3nNdbjSS98zn2el/P20pe+dPLvnOuNzCmdV4XvXewpfFf7IVz4bmsN32k/+gEyATttYEJk/yJZLvSlfUgwz+dALhgmDGYbCc1p4xIMc4Et7WTaghe96EWTduL000+ftOfZTkJx2uEEzOnQn3Yh+6jBN581Rx999KS9y8+0JWkrc+Exz83Fv7RBaRvT3ueib9qfDHlPO5PpNWu1q1/+8pcnx/KmN71pcqE2FwnT/uXzqAb8rJee57Rd2W5ee4bV5zVnaH4Nwzk/aWvzmZXtpM2tFw76rzPHmPObc5eLpQniCfJpf3PBM8eb7WfbT3va0ybn97Wvfe3kdU+Hfc6u8A0AI0X43uWewneGLqZ4qYVB1knvQQqHFCJ1vRq+03ucIiO95SkwUnz0e1lSyNUbfPV7d1PwpdhK4bNWUZWi633ve9/9tpmQn4LwpJNO2v3cbDsBvYbQPJbAmcK0Pi+vK68jvb71tV977bX36xlOr0gKsxRe/SHdKazy3BSa2X4Ktayb15aejDrXcq3ejJzTGmDT8117c1Ikp1jNa8rNk/JYtpOLAHks5zgBN8eT484wyPRqZzvf+c53JvtNkZvjyrGkqK7DG/NYemz6wx1TROf3UQN5luUYUqjmYkPOdfZX/wZynClYc37T61W3k2PNY7koUc/5/mL5Pdxdfjd/HgqaXN2E8NKevKL8Tf1x6Lxy700blxCY3txcfIu5SVouGqYtyCid+v5M+5ELe2mrp3vDMwon7+f++tl22oUE0On3eNqwLBuaD54LdPks6IfvtHFpQxNkp9vJtKtpk3KxMG15f//5vEqoXqttTRuYNnj6GHOBM9b2L+1XQnra8374rZ8HMRcEcpz98xD7/07bnO0kgNcLsjHnNM/NRYr+8eYiRj4r+u0w21h+d8I3AIwR4XuXewrfQ6awSe9qirNagNTwnd6JhLj0VkwH75jhhClG+sG9mhCYYm89c+qmTQGZwq8WPinSEuZTdE4XYNX0XNTicmh5TC9JtjM9VDumkM0Qwv72U1CmqFptn31zwSHHnOHm0+unhz/HlqKtLksxmfA9NOc7RV/Of7/XOeciBeHQDdr6TofvmPXzd5Fl08/NvM/8DtNbM70sFwHyt5G/kf7ji2557wjfM1jC94/OOOOM04TvdqbtS9uR9qCa92t6q6fvCZHpOlmWe0ZM97ymzUv7lM+GumytOd97G77z//R699udavaZCwjpQe63MWnT8tmSC62zTHFJe5p2re4zF1trO7daEM5rTfs43dPdN73d2c70+Y3pcc8x90eKmfO9eQrfADBShO9drjd856p9wl96RFPcpaCbDt8JhiluEkDTuzAUwNJrnvVSqKXHOiEzpgei9t5u3779Ac8bMtvPuhnSnoCZAqn2LqTQSa9vitAMvxy6kU5Cd4JiQnSOp99jUU3PbwrK9BZPH296f7OsXwSmhzxF1XQoHTIXKrL/fu9xtQbnDHeshWwKxZy7XBCY3n6G++fcTc99zxz1FLH5mdEI/WXVofCd15S/i/RKTe8r88ZzHLmAUs9HPScZaZBzPvSaFtmE7yOPPPLwAw888KD92cIpJVD/sR+wh0zoPvjggw8vTbFh541N+1zf8/l32q7Mt857fDoYZ7RKLi7WYeTVDIXOlKC0b/254+lFz2MZNbTR8J1e7ekh8NVcNM1xZSRPv/1J+57nZcrResJ3LhbkYmXapYwYymdCgnBt63IcuXdI2rp8ZuW1Tl8wTkDO50vOaV5H5pJP7zvtZI43P+s5zDnPKKC047nA0Q/mwvfmWX6nwjcAjBHhe5d7Ct8JrQnMGXqdOXsxN8ZJ0KtDzLNeDd8pOlLkJdAO9WBn3mDWyzZSBGX+cb05Tb3Rz3TxM21uNJYe5zwn5pgS+PKzP7QvYTM9JDnWFEYpsqZDeL5SLfMOc0zZd+Ya9ou9FIdZVvc1fbwpovqhfW/Cd44n2+4Pv++b15OirRZos4TvFLsZyp/nZXl6YXITvP469Xe23vCdYf+5aJC/iXo++uckP3Os/ecsuuW9Y853YU9zvvuhe9cz3HCttQncaTf6dzvPz7RzeU/329eE6bSNmf6SC6cZql7N3OS0UVddddXuNmCt8J1RTXsTvhN2M/x6rfA9fVOzrJve8j2F74wAes1rXjNpp9JGpx2LaVPTPk33tudzIBda8zmSNiy93f1e7rTxGemTixQ5rnz+5AJjPbbcNyPnNhctps9jgn9+F/3PCeF78xS+AWCkCN+7XCt8p/hI0ZSCJHcUT6BKuEtBlDDXn59dh52nlyFFSYqePLdfOMWE79wsLD0aCcLpva6mINpTMZICKMVPehSyjfR655jSS5Mehn74rqZ4TK96XkeGp9cCsJpCMUPAE7Sz7f5N41IcZrt5fem56B9vjn+6ANyb8F2/HmyoRzrPr0G2FoGzhO9qRi2kVye/l7ye/lD7vQ3f2X+OI/Pvh36H/eGV+4vC9y5WC99DobsifLe1hu/pu50nFOd93h8+XW+KWW90VtddzRq+h4ad5yZnWZYRMdNtRtrdXJDdV+G7tvc53v7zE4yn27q+uTCZYJ1e7nqTtOl1EtTzOnMxo7Z1uXFa2sv1humE78zBF77bK3wDwEgRvne5VvhOQEsBk57v6QIoQW9oznd6SvJYCr9sd/q56QFIYZPhgPWxvbH2ePe3GdPjkIJoKHxX6/zthPah5THFYAJqLaqy3QTNPfXGV3N8Kaqmj2/I9LKnSM5dgqfXT89N9pv912UbCd/VFLM5B+9///t3b2MofKdIzvnM0MnpfeUCSI47xfb0sv1V4XsX0+F7rdBdEb7bulr4zkikjFbJCJ86KikXFPPeT8/3WmG2mouUadcz9Ho6fPdvOtbfb9qt7DNtY93HZofvXATN8PTpC60Jybm53GrhO6Y9zmvMa12tfcuQ/nxO1M+FTCHKc9bbJub48/qF7/YK3wAwUoTvXa4VvtMLkPCd3up+QZFekhRG/cdr+O73Gie45fm5M259bgqx2is+VDytVRTF9DakgOwfT3qOU9wllNfwnZ7e6W2l9z7Hk57w+rzp3p4My87FgVoU5YY/KWTTk9LfZ8wwwulh7CliE1rXU1RlvnrORYrS6d7i7C/nuP/1aXsbvnNs0/Pn85qzz/5N24bCd51zngsJ0+cov+uck8ztH+rlTkE//be06JbXK3wXavheT+iulHMnfDd0tfAdM1opy9J7W9//mUaSz4CE5oxeyWN5XtqbhOB+G5cLslk3Q7pzgTAjj2rAzXpphxNuE5rTnqT9zDzrtIkJxC3Cd/axp/CdkJ22Phd58/y0x7mxZdr2fE7U15QpTLknSJ2PnWNOe5h917usn3vuuZNAXveX+55kdFOsFzFy3nJRIMPac8x13ewnw/ET5PsXK+pnY8J69jl0Z3bOZvnbEr4BYIwI37tMkE6Yzc/pwJQgmzluCXWZ352vf8kc6gyHzmO5w2stGFKEpZjoD0VPMKvzsWvgjdlXiqAE6RREF1544eR5Kc6GQm7fFEp5boaZ53gSOnP8Kfj6Pd/piUh4TO98emnyM8E1N86pc++yjRRQ6QXOtlJQZp0Uo/1jyLFlnykUE1rT85v5kOlZSWHWXzcBP8VthhXm/AwF5b75ipsUeinc8trznITanLPpUQMpBnMcQ3dHz+tLqO6H7/TwZ9u5oJBiNseewjW/vxSQdb0sz+vu3xAo5jVmf5nPmOGa9WvVsiz/zrZz/vK3kXOcn7n4MNRbvugK37sof0ePTAAv/9xj6K4I323NTdTSHqbtmQ7fCc+50JaLn7WtTHtYb5SYdj3tcu7hkPYkN5Xsh+98RqSdSruQ6UMx+6vv94TJtH9pT7Is20ibmPnU+SzoDztPu53Pl6EQneck5E+H7xxz2vV8Vkz3avfN68yFwxxHXk8Cd9rVTC3K66wXGhOqc7xpy7LN/DufI/1h+JkelNebc5ILpTlHaftzYbR/bDkPGVqf15z9Zb/Zf547/VVmuUFltpdtZf20wWtdTOD6LX9bwjcAjBHhe5cpbhJCUzQNLU+RkiF2KZxSWOT7VRPwMhc4Q8hr8ZH1EjhTZKSwqs9PkZFeitwhu1+opEck+02RkkCY3pHsZ+grvabNPnIsCawJe+ndSBjsB+sUjOnJSZGU9dLLkpDd76lNmM0NcbJOjiHFVy4E9I+zmnCZ5Tneur2E4PQC99dLgZX9Znm2Of26h8y5yJzIhOIUpCkS0yMz/bwMcUzRPHSMGbmQ898P0DmWHHeKwBxLXmdeb3q0+s/NhYoUx9PFX85h1s9z85qnjylzvnMxpv4O85oT2PvzyfcXy9+88D0j5dwJ3w3N+zbv1VxgG2p70us9NDw6F0jTjqSdTPhMb+10eI/pwU1vbtr/hNca4qtpw3OxLxdKM3oq+8nc8ulh3Pl/P7j3TU9w9tEP/jGfLZdddtkDQvmQaQtzoTQXIXKDuLyWfHZlJFb/deWxfKbkdWcq0NB5y7nJOcm20v5OH1c1ny85J7kom3Y1+8/2h441nz8539nuavPLufcK3wAwUoTvvTMF1/QcvxZmmzUw763rfd50cThtCrr1bivrDRWk085SSOVcrGfbs5jjzuscWrYn9/R7z2ud9Xe4KJZzK3zPSDl3wjfJJgrfADBShG+SrRS+Z0f4JtlK4RsARorwTbKVwvfsCN8kWyl8A8BIEb5JtlL4nh3hm2QrhW8AGCnCN8lWCt+zI3yTbKXwDQAjRfgm2Urhe3aEb5KtFL4BYKQI3yRbKXzPjvBNspXCNwCMFOGbZCuF79kRvkm2UvgGgJEifJNspfA9O8I3yVYK3wAwUoRvkq0UvmdH+CbZSuEbAEaK8E2ylcL37AjfJFspfAPASBG+SbZS+J4d4ZtkK4VvABgpwjfJVgrfsyN8k2yl8A0AI0X4JtlK4Xt2hG+SrRS+AWCkCN8kWyl8z47wTbKVwjcAjBThm2Qrhe/ZEb5JtlL4BoCRInyTbKXwPTvCN8lWCt8AMFKEb5KtFL5nR/gm2UrhGwBGivBNspXC9+wI3yRbKXwDwEgRvkm2UvieHeGbZCuFbwAYKcI3yVYK37MjfJNspfANACNF+CbZSuF7doRvkq0UvgFgpAjfJFspfM+O8E2ylcI3AIwU4ZtkK4Xv2RG+SbZS+AaAkSJ8k2yl8D07wjfJVgrfADBShG+SrRS+Z0f4JtlK4RsARorwTbKVwvfsCN8kWyl8A8BIEb5JtlL4nh3hm2QrhW8AGCnCN8lWCt+zI3yTbKXwDQAjRfgm2Urhe3aEb5KtFL4BYKQI3yRbKXzPjvBNspXCNwCMFOGbZCuF79kRvkm2UvgGgJEifJNspfA9O8I3yVYK3wAwUoRvkq0UvmdH+CbZSuEbAEaK8E2ylcL37AjfJFspfAPASBG+SbZS+J4d4ZtkK4VvABgpwjfJVgrfsyN8k2yl8A0AI0X4JtlK4Xt2hG+SrRS+AWCkCN8kWyl8z47wTbKVwjcAjBThm2Qrhe/ZEb5JtlL4BoCRInyTbKXwPTvCN8lWCt8AMFKEb5KtFL5nR/gm2UrhGwBGivBNspXC9+wI3yRbKXwDwEgRvkm2UvieHeGbZCuFbwAYKcI3yVYK37MjfJNspfANACNF+CbZSuF7doRvkq0UvgFgpAjfJFspfM+O8E2ylcI3AIwU4ZtkK4Xv2RG+SbZS+AaAkSJ8k2yl8D07wjfJVgrfADBShG+SrRS+Z0f4JtlK4RsARorwTbKVwvfsCN8kWyl8AwAAAAAAAAAAAAAAAAAAAAAAAAAAAAAAAAAAAAAAAAAAAAAAAAAAAAAAAAAAAAAAAAAAAAAAAAAAAAAAAAAAAAAAAAAAAAAAAAAAAAAAAAAAAAAAAAAAAAAAAAAAAAAAAAAAAAAAAAAAAAAAAAAAAAAAAAAAAAAAAAAAAAAAAAAAAAAAAAAAAAAAAAAAAAAAAAAAAAAAAAAAAAAAAAAAAAD2Df/m3/x/UsdwP2+R1/gAAAAASUVORK5CYII=;" vertex="1" parent="1">
          <mxGeometry x="-2360" y="-700" width="991" height="1428" as="geometry" />
        </mxCell>
        <mxCell id="g9UJR_FiPySJohdKR4Xd-16" style="edgeStyle=orthogonalEdgeStyle;rounded=0;orthogonalLoop=1;jettySize=auto;html=1;exitX=1;exitY=0.5;exitDx=0;exitDy=0;entryX=0;entryY=0.5;entryDx=0;entryDy=0;fontSize=30;strokeWidth=4;" edge="1" parent="1" source="g9UJR_FiPySJohdKR4Xd-3" target="g9UJR_FiPySJohdKR4Xd-5">
          <mxGeometry relative="1" as="geometry" />
        </mxCell>
        <mxCell id="g9UJR_FiPySJohdKR4Xd-3" value="Start" style="rounded=1;whiteSpace=wrap;html=1;fontSize=30;fillColor=#D9D9D9;fontColor=#333333;strokeColor=none;" vertex="1" parent="1">
          <mxGeometry x="-3230" y="-486" width="210" height="100" as="geometry" />
        </mxCell>
        <mxCell id="g9UJR_FiPySJohdKR4Xd-4" value="Finish" style="rounded=1;whiteSpace=wrap;html=1;fontSize=30;fillColor=#D9D9D9;fontColor=#333333;strokeColor=none;" vertex="1" parent="1">
          <mxGeometry x="-2317" y="535" width="210" height="100" as="geometry" />
        </mxCell>
        <mxCell id="g9UJR_FiPySJohdKR4Xd-17" style="edgeStyle=orthogonalEdgeStyle;rounded=0;orthogonalLoop=1;jettySize=auto;html=1;exitX=0.5;exitY=1;exitDx=0;exitDy=0;entryX=0.5;entryY=0;entryDx=0;entryDy=0;fontSize=30;strokeWidth=4;" edge="1" parent="1" source="g9UJR_FiPySJohdKR4Xd-5" target="g9UJR_FiPySJohdKR4Xd-6">
          <mxGeometry relative="1" as="geometry" />
        </mxCell>
        <mxCell id="g9UJR_FiPySJohdKR4Xd-5" value="Request Permission" style="rounded=0;whiteSpace=wrap;html=1;fontSize=30;fillColor=#D9D9D9;fontColor=#333333;strokeColor=none;" vertex="1" parent="1">
          <mxGeometry x="-2860" y="-490" width="330" height="110" as="geometry" />
        </mxCell>
        <mxCell id="g9UJR_FiPySJohdKR4Xd-18" style="edgeStyle=orthogonalEdgeStyle;rounded=0;orthogonalLoop=1;jettySize=auto;html=1;exitX=0.5;exitY=1;exitDx=0;exitDy=0;fontSize=30;strokeWidth=4;" edge="1" parent="1" source="g9UJR_FiPySJohdKR4Xd-6" target="g9UJR_FiPySJohdKR4Xd-12">
          <mxGeometry relative="1" as="geometry" />
        </mxCell>
        <mxCell id="g9UJR_FiPySJohdKR4Xd-6" value="Confirm Details" style="rounded=0;whiteSpace=wrap;html=1;fontSize=30;fillColor=#D9D9D9;fontColor=#333333;strokeColor=none;" vertex="1" parent="1">
          <mxGeometry x="-2860" y="-320" width="330" height="110" as="geometry" />
        </mxCell>
        <mxCell id="g9UJR_FiPySJohdKR4Xd-24" style="edgeStyle=orthogonalEdgeStyle;rounded=0;orthogonalLoop=1;jettySize=auto;html=1;entryX=0.5;entryY=1;entryDx=0;entryDy=0;fontSize=30;strokeWidth=4;" edge="1" parent="1" source="g9UJR_FiPySJohdKR4Xd-8" target="g9UJR_FiPySJohdKR4Xd-4">
          <mxGeometry relative="1" as="geometry" />
        </mxCell>
        <mxCell id="g9UJR_FiPySJohdKR4Xd-8" value="Return asset" style="rounded=0;whiteSpace=wrap;html=1;fontSize=30;fillColor=#D9D9D9;fontColor=#333333;strokeColor=none;" vertex="1" parent="1">
          <mxGeometry x="-2345" y="720" width="266" height="100" as="geometry" />
        </mxCell>
        <mxCell id="g9UJR_FiPySJohdKR4Xd-20" style="edgeStyle=orthogonalEdgeStyle;rounded=0;orthogonalLoop=1;jettySize=auto;html=1;entryX=0.5;entryY=0;entryDx=0;entryDy=0;fontSize=30;strokeWidth=4;" edge="1" parent="1" source="g9UJR_FiPySJohdKR4Xd-10" target="g9UJR_FiPySJohdKR4Xd-11">
          <mxGeometry relative="1" as="geometry">
            <mxPoint x="-2726" y="230" as="sourcePoint" />
          </mxGeometry>
        </mxCell>
        <mxCell id="g9UJR_FiPySJohdKR4Xd-29" value="Yes" style="edgeLabel;html=1;align=center;verticalAlign=middle;resizable=0;points=[];fontSize=30;" vertex="1" connectable="0" parent="g9UJR_FiPySJohdKR4Xd-20">
          <mxGeometry x="-0.0619" y="-1" relative="1" as="geometry">
            <mxPoint y="1" as="offset" />
          </mxGeometry>
        </mxCell>
        <mxCell id="g9UJR_FiPySJohdKR4Xd-25" style="edgeStyle=orthogonalEdgeStyle;rounded=0;orthogonalLoop=1;jettySize=auto;html=1;entryX=0;entryY=0.5;entryDx=0;entryDy=0;fontSize=30;strokeWidth=4;" edge="1" parent="1" target="g9UJR_FiPySJohdKR4Xd-13">
          <mxGeometry relative="1" as="geometry">
            <mxPoint x="-2556" y="150" as="sourcePoint" />
          </mxGeometry>
        </mxCell>
        <mxCell id="g9UJR_FiPySJohdKR4Xd-26" value="No" style="edgeLabel;html=1;align=center;verticalAlign=middle;resizable=0;points=[];fontSize=30;" vertex="1" connectable="0" parent="g9UJR_FiPySJohdKR4Xd-25">
          <mxGeometry x="0.2621" y="6" relative="1" as="geometry">
            <mxPoint as="offset" />
          </mxGeometry>
        </mxCell>
        <mxCell id="g9UJR_FiPySJohdKR4Xd-10" value="Permission granted ?" style="rhombus;whiteSpace=wrap;html=1;fontSize=30;fillColor=#D9D9D9;fontColor=#333333;strokeColor=none;" vertex="1" parent="1">
          <mxGeometry x="-2900" y="70" width="410" height="160" as="geometry" />
        </mxCell>
        <mxCell id="g9UJR_FiPySJohdKR4Xd-21" style="edgeStyle=orthogonalEdgeStyle;rounded=0;orthogonalLoop=1;jettySize=auto;html=1;exitX=0.5;exitY=1;exitDx=0;exitDy=0;fontSize=30;strokeWidth=4;" edge="1" parent="1" source="g9UJR_FiPySJohdKR4Xd-11" target="g9UJR_FiPySJohdKR4Xd-14">
          <mxGeometry relative="1" as="geometry" />
        </mxCell>
        <mxCell id="g9UJR_FiPySJohdKR4Xd-11" value="Inform requester" style="rounded=0;whiteSpace=wrap;html=1;fontSize=30;fillColor=#D9D9D9;fontColor=#333333;strokeColor=none;" vertex="1" parent="1">
          <mxGeometry x="-2856" y="350" width="320" height="110" as="geometry" />
        </mxCell>
        <mxCell id="g9UJR_FiPySJohdKR4Xd-19" style="edgeStyle=orthogonalEdgeStyle;rounded=0;orthogonalLoop=1;jettySize=auto;html=1;exitX=0.5;exitY=1;exitDx=0;exitDy=0;entryX=0.5;entryY=0;entryDx=0;entryDy=0;fontSize=30;strokeWidth=4;" edge="1" parent="1" source="g9UJR_FiPySJohdKR4Xd-12" target="g9UJR_FiPySJohdKR4Xd-10">
          <mxGeometry relative="1" as="geometry" />
        </mxCell>
        <mxCell id="g9UJR_FiPySJohdKR4Xd-12" value="Obtain permission" style="rounded=0;whiteSpace=wrap;html=1;fontSize=30;fillColor=#D9D9D9;fontColor=#333333;strokeColor=none;" vertex="1" parent="1">
          <mxGeometry x="-2862" y="-140" width="334" height="100" as="geometry" />
        </mxCell>
        <mxCell id="g9UJR_FiPySJohdKR4Xd-13" value="Inform requester" style="rounded=0;whiteSpace=wrap;html=1;fontSize=30;fillColor=#D9D9D9;fontColor=#333333;strokeColor=none;" vertex="1" parent="1">
          <mxGeometry x="-2350" y="95" width="276" height="110" as="geometry" />
        </mxCell>
        <mxCell id="g9UJR_FiPySJohdKR4Xd-22" style="edgeStyle=orthogonalEdgeStyle;rounded=0;orthogonalLoop=1;jettySize=auto;html=1;exitX=0.5;exitY=1;exitDx=0;exitDy=0;entryX=0.5;entryY=0;entryDx=0;entryDy=0;fontSize=30;strokeWidth=4;" edge="1" parent="1" source="g9UJR_FiPySJohdKR4Xd-14" target="g9UJR_FiPySJohdKR4Xd-15">
          <mxGeometry relative="1" as="geometry" />
        </mxCell>
        <mxCell id="g9UJR_FiPySJohdKR4Xd-14" value="Book out asset" style="rounded=0;whiteSpace=wrap;html=1;fontSize=30;fillColor=#D9D9D9;fontColor=#333333;strokeColor=none;" vertex="1" parent="1">
          <mxGeometry x="-2854" y="532.5" width="316" height="105" as="geometry" />
        </mxCell>
        <mxCell id="g9UJR_FiPySJohdKR4Xd-23" style="edgeStyle=orthogonalEdgeStyle;rounded=0;orthogonalLoop=1;jettySize=auto;html=1;exitX=1;exitY=0.5;exitDx=0;exitDy=0;entryX=0;entryY=0.5;entryDx=0;entryDy=0;fontSize=30;strokeWidth=4;" edge="1" parent="1" source="g9UJR_FiPySJohdKR4Xd-15" target="g9UJR_FiPySJohdKR4Xd-8">
          <mxGeometry relative="1" as="geometry" />
        </mxCell>
        <mxCell id="g9UJR_FiPySJohdKR4Xd-15" value="Take asset offsite" style="rounded=0;whiteSpace=wrap;html=1;fontSize=30;fillColor=#D9D9D9;fontColor=#333333;strokeColor=none;" vertex="1" parent="1">
          <mxGeometry x="-2860" y="720" width="330" height="100" as="geometry" />
        </mxCell>
      </root>
    </mxGraphModel>
  </diagram>
</mxfile>
